<svg width="52" height="54" viewBox="0 0 52 54" fill="none" xmlns="http://www.w3.org/2000/svg">
<path d="M13.3543 6.01172C6.54102 9.30234 0.908984 12.0867 0.824609 12.1922C0.708594 12.3504 0.6875 14.9977 0.6875 27.0105C0.6875 40.7848 0.698047 41.6496 0.877344 41.85C1.07773 42.0926 25.7152 54 26.0105 54C26.2953 54 50.9223 42.0926 51.1227 41.85C51.302 41.6496 51.3125 40.7848 51.3125 27C51.3125 13.2152 51.302 12.3504 51.1332 12.15C50.8906 11.8758 26.2742 0 25.9684 0.0105476C25.8418 0.0105476 20.1676 2.71054 13.3543 6.01172ZM37.4645 7.20351C43.6133 10.1777 48.6441 12.6246 48.623 12.6352C48.602 12.6562 47.1359 13.384 45.3535 14.2383L42.1262 15.8098L40.4703 14.9871C39.5633 14.5441 34.4797 12.0867 29.1957 9.53437C23.9012 6.99258 19.5664 4.87265 19.5664 4.84101C19.5664 4.71445 25.9473 1.69805 26.1055 1.75078C26.1898 1.78242 31.3051 4.2293 37.4645 7.20351ZM29.0164 11.2008C35.1863 14.175 40.2383 16.6324 40.2383 16.6641C40.2383 16.7168 35.798 18.8789 35.682 18.8789C35.6293 18.8789 30.3559 16.3477 17.5309 10.1461L13.0168 7.96289L13.3648 7.80469C13.5547 7.72031 14.5672 7.23516 15.6008 6.7289C16.6449 6.21211 17.5625 5.80078 17.6469 5.80078C17.7313 5.80078 22.8465 8.23711 29.0164 11.2008ZM23.0996 14.5863L34.9121 20.3027L34.9438 25.207C34.9648 30.0586 34.9648 30.1008 35.1969 30.3434C35.3234 30.4805 35.5344 30.5859 35.682 30.5859C35.9773 30.5859 42.0734 27.675 42.2633 27.443C42.3688 27.327 42.4109 26.0824 42.4531 22.3277L42.5059 17.3707L46.0812 15.6516C48.0535 14.7023 49.6777 13.9219 49.6988 13.9219C49.7199 13.9219 49.7305 19.9863 49.7305 27.4008V40.8797L38.382 46.3535C32.1383 49.3699 26.9914 51.8484 26.9387 51.8695C26.8859 51.8906 26.8438 46.2375 26.8438 38.4223V24.9328L29.3434 23.7305C30.725 23.066 31.9906 22.4438 32.1699 22.3594C32.6129 22.1379 32.8027 21.7055 32.6234 21.3363C32.5496 21.1781 32.3492 20.9777 32.191 20.9039C31.9062 20.7668 31.7902 20.809 29.7652 21.7793C28.5945 22.3488 27.2656 22.9711 26.8121 23.182L26 23.5617L25.0191 23.1082C24.4918 22.8551 23.9223 22.602 23.7641 22.5387C23.3527 22.3699 22.9309 22.5492 22.7727 22.95C22.5512 23.4879 22.7516 23.7094 24.0172 24.3633L25.1562 24.9434V38.4223C25.1562 45.8367 25.1141 51.8906 25.0719 51.8695C25.0191 51.859 19.8723 49.3699 13.6285 46.3535L2.26953 40.8691V27.4008C2.26953 19.9863 2.29062 13.9219 2.31172 13.9219C2.33281 13.9219 6.27734 15.8203 11.0867 18.1406C16.2125 20.6191 19.9355 22.3594 20.1148 22.3594C20.273 22.3594 20.5051 22.2645 20.6211 22.1484C20.8848 21.8848 20.8953 21.2941 20.6527 21.0621C20.5473 20.9777 18.2797 19.8492 15.6113 18.5625C7.1 14.4598 6.57266 14.2066 4.93789 13.3945L3.33477 12.6035L7.20547 10.7367C9.33594 9.71367 11.1289 8.86992 11.1816 8.86992C11.2449 8.86992 16.6027 11.4434 23.0996 14.5863ZM40.8711 22.3383V26.441L38.7723 27.4535C37.6121 28.023 36.6418 28.4766 36.6102 28.4766C36.5785 28.4766 36.5469 26.6309 36.5469 24.3633V20.2605L38.5824 19.2586C39.6898 18.7102 40.6707 18.2566 40.7445 18.2566C40.8395 18.2461 40.8711 19.132 40.8711 22.3383Z" fill="white"/>
<path d="M4.28388 32.5477C4.03076 32.8641 3.99912 33.2016 4.19951 33.4652C4.3788 33.7184 11.4452 37.125 11.7722 37.125C12.4261 37.125 12.7847 36.3023 12.3311 35.8594C12.0147 35.543 5.14873 32.2734 4.80068 32.2734C4.60029 32.2734 4.43154 32.3684 4.28388 32.5477Z" fill="white"/>
<path d="M4.48433 36.1019C4.11519 36.2917 3.97808 36.7453 4.16792 37.1039C4.37886 37.473 7.93316 39.266 8.48159 39.266C9.14605 39.2871 9.48355 38.4539 8.99839 38.0003C8.75581 37.7683 5.37026 36.1124 4.96948 36.0175C4.84292 35.9859 4.63198 36.0281 4.48433 36.1019Z" fill="white"/>
</svg>
