<svg width="54" height="54" viewBox="0 0 54 54" fill="none" xmlns="http://www.w3.org/2000/svg">
<path fill-rule="evenodd" clip-rule="evenodd" d="M11.0597 43.6657C4.4194 39.4875 0 32.0715 0 23.625C0 10.5863 10.5336 0 23.5075 0C31.5784 0 38.7067 4.09725 42.9403 10.3342C49.5806 14.5125 54 21.9285 54 30.375C54 43.4137 43.4664 54 30.4925 54C22.4351 54 15.3179 49.9162 11.0821 43.6973L11.0597 43.6657ZM30.4925 9C42.2306 9 51.7612 18.5783 51.7612 30.375C51.7612 42.1717 42.2306 51.75 30.4925 51.75C18.7545 51.75 9.22388 42.1717 9.22388 30.375C9.22388 18.5783 18.7545 9 30.4925 9ZM31.6119 42.75H29.3261V40.7902C24.0806 40.1107 23.5075 35.8875 23.5075 34.6162H25.95C26.006 35.5275 26.3015 38.6077 30.8351 38.6077C32.1761 38.6077 33.2709 38.2905 34.0881 37.665C34.8963 37.044 35.2881 36.288 35.2881 35.3498C35.2881 33.5655 34.1396 32.274 30.6537 31.4842C25.3522 30.2782 24.1097 28.3388 24.1097 25.785C24.1097 22.3897 26.8478 20.799 29.3261 20.3715V18H31.6119V20.2838C37.1888 20.7225 37.6455 25.2675 37.6455 26.5185H35.1873C35.1873 23.9062 33.1321 22.545 30.7187 22.545C28.3075 22.545 26.5679 23.742 26.5679 25.713C26.5679 27.4703 27.5507 28.3343 31.0321 29.2095C35.2388 30.2738 37.7463 31.6868 37.7463 35.2417C37.7463 39.1657 34.3679 40.626 31.6119 40.851V42.75ZM37.9925 7.98075C34.1955 4.42575 29.1022 2.25 23.5075 2.25C11.7694 2.25 2.23881 11.8282 2.23881 23.625C2.23881 29.5492 4.64104 34.9132 8.5209 38.7878L8.51194 38.7653C7.52687 36.1575 6.98507 33.3293 6.98507 30.375C6.98507 17.3363 17.5187 6.75 30.4925 6.75C33.1142 6.75 35.6373 7.182 37.9925 7.98075Z" fill="white"/>
</svg>
