<svg width="289" height="208" viewBox="0 0 289 208" fill="none" xmlns="http://www.w3.org/2000/svg">
<path d="M4.95675 26V3.6H14.5888C17.0208 3.6 18.9301 4.09067 20.3168 5.072C21.7034 6.05333 22.3968 7.48267 22.3968 9.36C22.3968 11.1947 21.7354 12.6027 20.4128 13.584C19.0901 14.544 17.3514 15.024 15.1968 15.024L15.7728 14.064C18.2688 14.064 20.1781 14.5653 21.5008 15.568C22.8448 16.5493 23.5168 17.9893 23.5168 19.888C23.5168 21.808 22.8128 23.312 21.4048 24.4C20.0181 25.4667 17.9488 26 15.1968 26H4.95675ZM8.12475 23.472H15.1328C16.8394 23.472 18.1194 23.1627 18.9728 22.544C19.8474 21.904 20.2847 20.9333 20.2847 19.632C20.2847 18.3307 19.8474 17.3813 18.9728 16.784C18.1194 16.1867 16.8394 15.888 15.1328 15.888H8.12475V23.472ZM8.12475 13.456H14.3648C15.9221 13.456 17.1061 13.1467 17.9167 12.528C18.7488 11.9093 19.1648 11.0027 19.1648 9.808C19.1648 8.592 18.7488 7.67467 17.9167 7.056C17.1061 6.43733 15.9221 6.128 14.3648 6.128H8.12475V13.456ZM25.759 26L35.903 3.6H39.071L49.247 26H45.887L36.831 5.392H38.111L29.055 26H25.759ZM30.079 20.4L30.943 17.84H43.551L44.479 20.4H30.079ZM66.329 23.216L65.593 24.048V3.6H68.729V24.048L67.929 23.216H78.841L78.041 24.048V3.6H81.177V26H53.113V3.6H56.281V24.048L55.481 23.216H66.329ZM85.0403 26L95.1843 3.6H98.3523L108.528 26H105.168L96.1123 5.392H97.3923L88.3363 26H85.0403ZM89.3602 20.4L90.2243 17.84H102.832L103.76 20.4H89.3602ZM120.988 26V3.6H140.284V26H137.148V5.552L137.916 6.384H123.356L124.156 5.552V26H120.988ZM157.349 26.256C155.643 26.256 154.053 25.968 152.581 25.392C151.131 24.816 149.872 24.016 148.805 22.992C147.739 21.9467 146.907 20.7307 146.309 19.344C145.712 17.9573 145.413 16.4427 145.413 14.8C145.413 13.1573 145.712 11.6427 146.309 10.256C146.907 8.86933 147.739 7.664 148.805 6.64C149.872 5.59467 151.131 4.784 152.581 4.208C154.032 3.632 155.621 3.344 157.349 3.344C159.056 3.344 160.624 3.632 162.053 4.208C163.504 4.76267 164.763 5.56267 165.829 6.608C166.917 7.632 167.749 8.83733 168.325 10.224C168.923 11.6107 169.221 13.136 169.221 14.8C169.221 16.464 168.923 17.9893 168.325 19.376C167.749 20.7627 166.917 21.9787 165.829 23.024C164.763 24.048 163.504 24.848 162.053 25.424C160.624 25.9787 159.056 26.256 157.349 26.256ZM157.349 23.408C158.587 23.408 159.728 23.1947 160.773 22.768C161.84 22.3413 162.757 21.744 163.525 20.976C164.315 20.1867 164.923 19.2693 165.349 18.224C165.797 17.1787 166.021 16.0373 166.021 14.8C166.021 13.5627 165.797 12.4213 165.349 11.376C164.923 10.3307 164.315 9.424 163.525 8.656C162.757 7.86666 161.84 7.25867 160.773 6.832C159.728 6.40533 158.587 6.192 157.349 6.192C156.091 6.192 154.928 6.40533 153.861 6.832C152.816 7.25867 151.899 7.86666 151.109 8.656C150.32 9.424 149.701 10.3307 149.253 11.376C148.827 12.4213 148.613 13.5627 148.613 14.8C148.613 16.0373 148.827 17.1787 149.253 18.224C149.701 19.2693 150.32 20.1867 151.109 20.976C151.899 21.744 152.816 22.3413 153.861 22.768C154.928 23.1947 156.091 23.408 157.349 23.408ZM174.394 26V3.6H177.018L187.066 20.528H185.658L195.578 3.6H198.202L198.234 26H195.162L195.13 8.432H195.866L187.034 23.28H185.562L176.666 8.432H177.466V26H174.394ZM215.287 26.256C213.58 26.256 211.991 25.968 210.519 25.392C209.068 24.816 207.809 24.016 206.743 22.992C205.676 21.9467 204.844 20.7307 204.247 19.344C203.649 17.9573 203.351 16.4427 203.351 14.8C203.351 13.1573 203.649 11.6427 204.247 10.256C204.844 8.86933 205.676 7.664 206.743 6.64C207.809 5.59467 209.068 4.784 210.519 4.208C211.969 3.632 213.559 3.344 215.287 3.344C216.993 3.344 218.561 3.632 219.991 4.208C221.441 4.76267 222.7 5.56267 223.767 6.608C224.855 7.632 225.687 8.83733 226.263 10.224C226.86 11.6107 227.159 13.136 227.159 14.8C227.159 16.464 226.86 17.9893 226.263 19.376C225.687 20.7627 224.855 21.9787 223.767 23.024C222.7 24.048 221.441 24.848 219.991 25.424C218.561 25.9787 216.993 26.256 215.287 26.256ZM215.287 23.408C216.524 23.408 217.665 23.1947 218.711 22.768C219.777 22.3413 220.695 21.744 221.463 20.976C222.252 20.1867 222.86 19.2693 223.287 18.224C223.735 17.1787 223.959 16.0373 223.959 14.8C223.959 13.5627 223.735 12.4213 223.287 11.376C222.86 10.3307 222.252 9.424 221.463 8.656C220.695 7.86666 219.777 7.25867 218.711 6.832C217.665 6.40533 216.524 6.192 215.287 6.192C214.028 6.192 212.865 6.40533 211.799 6.832C210.753 7.25867 209.836 7.86666 209.047 8.656C208.257 9.424 207.639 10.3307 207.191 11.376C206.764 12.4213 206.551 13.5627 206.551 14.8C206.551 16.0373 206.764 17.1787 207.191 18.224C207.639 19.2693 208.257 20.1867 209.047 20.976C209.836 21.744 210.753 22.3413 211.799 22.768C212.865 23.1947 214.028 23.408 215.287 23.408ZM245.548 23.216L244.812 24.048V3.6H247.948V24.048L247.148 23.216H258.06L257.26 24.048V3.6H260.396V26H232.332V3.6H235.5V24.048L234.7 23.216H245.548ZM260.812 30.896V25.168L261.612 26H257.196V23.216H263.756V30.896H260.812ZM278.031 11.408C280.676 11.408 282.713 12.0053 284.143 13.2C285.572 14.3733 286.287 16.1333 286.287 18.48C286.287 20.9547 285.508 22.832 283.951 24.112C282.415 25.3707 280.249 26 277.455 26H268.207V3.6H271.375V11.408H278.031ZM277.327 23.472C279.183 23.472 280.601 23.056 281.583 22.224C282.585 21.392 283.087 20.1653 283.087 18.544C283.087 16.9653 282.596 15.8027 281.615 15.056C280.633 14.3093 279.204 13.936 277.327 13.936H271.375V23.472H277.327Z" fill="white"/>
<path d="M18.6142 39.4542C18.8912 41.922 19.3696 43.5084 20.5028 45.9509C21.5352 48.2424 22.8698 49.8539 23.9526 50.2065C24.3051 50.3072 24.4058 50.5338 24.3303 51.0878C24.2044 51.8684 24.5569 52.0447 25.1109 51.4907C25.6145 51.0123 24.9598 52.2461 24.1288 53.3289C23.1468 54.5879 21.8877 57.937 21.6359 60.0018C21.2582 62.7969 21.4345 67.128 21.9381 68.3115C22.9705 70.6282 22.9957 75.9162 21.9885 76.6464C21.787 76.7975 21.6108 77.1248 21.6108 77.3515C21.6108 77.6033 21.4597 77.7544 21.3086 77.6788C21.1323 77.6285 21.0064 77.3766 21.0568 77.1248C21.1575 76.596 20.7042 76.8227 20.3517 77.5025C20.1503 77.9054 20.1503 77.9558 20.4776 77.8551C20.7042 77.7544 20.8553 77.8551 20.8553 78.0817C20.8553 78.5853 20.4272 78.8623 20.2006 78.4846C19.8984 77.981 17.8336 80.7005 17.8336 81.6322C17.8336 82.7905 20.6791 85.8122 24.0029 88.1792C26.0426 89.6649 30.1974 91.8557 30.9025 91.8557C31.1795 91.8557 31.9601 92.0319 32.6148 92.2586C33.7479 92.6363 33.9997 92.6363 36.0898 92.2586C37.3488 92.0319 38.9352 91.6794 39.6151 91.4779C45.4822 89.7656 46.2125 89.5894 47.7233 89.5894C49.5364 89.5894 50.7702 90.093 51.9285 91.3269L52.6588 92.0823L52.2559 93.5428C52.0293 94.3486 51.8026 95.5573 51.7271 96.2623C51.6012 97.4458 51.6264 97.4206 51.9789 95.8846C53.389 89.7153 55.2524 84.9057 56.9144 83.0423C58.1482 81.6574 58.123 81.8085 56.0582 86.8195C53.8423 92.1075 53.1876 94.1219 52.5832 97.3199C52.2811 98.8056 51.8278 100.896 51.576 101.928C51.1227 103.791 51.0976 103.791 51.0724 102.683L51.022 101.55L50.6947 103.061C50.5184 103.892 50.317 105.126 50.2414 105.831L50.1155 107.09L50.468 105.982C50.8961 104.597 51.3997 103.993 51.1983 105.076C51.1227 105.504 50.8961 107.191 50.6947 108.853C50.4932 110.515 50.1407 113.108 49.9392 114.644C49.7126 116.155 49.486 118.044 49.3853 118.799C49.3097 119.555 49.0831 120.436 48.9068 120.738C48.7054 121.04 48.5543 121.494 48.5543 121.745C48.5291 122.853 45.5326 125.12 45.5326 124.037C45.5326 123.886 46.0614 123.281 46.6909 122.702C47.6478 121.821 47.8241 121.519 47.7485 120.914L47.6478 120.184L47.2449 121.065C46.7665 122.123 44.3491 124.44 43.1908 124.969C42.385 125.321 42.0324 125.548 40.6727 126.454C40.295 126.706 39.2122 127.285 38.2805 127.738C37.3488 128.192 35.6365 129.199 34.453 129.98C33.2947 130.76 32.2623 131.39 32.1615 131.39C32.0608 131.39 30.8773 132.019 29.5175 132.8C28.1326 133.58 24.2044 135.62 20.7294 137.332C17.2796 139.045 13.427 141.009 12.1679 141.714C10.9341 142.394 9.62465 143.099 9.27212 143.25C8.91958 143.401 8.31524 143.779 7.88717 144.081C7.48427 144.408 6.98066 144.71 6.82957 144.761C5.9986 145.013 3.12798 148.236 2.52364 149.52C2.17111 150.275 1.81857 150.955 1.71785 151.031C1.34014 151.283 0.609892 152.944 0.433625 153.927C0.332902 154.481 0.156636 155.261 0.0559121 155.664C-0.221078 156.772 0.55953 158.006 1.76821 158.384C2.80063 158.686 4.43739 158.358 5.26836 157.653C5.4698 157.477 5.77197 157.326 5.92306 157.326C6.57776 157.326 8.7685 155.991 10.4053 154.606C14.1572 151.459 19.42 149.57 32.0105 146.876C34.2516 146.397 37.4999 145.617 39.2374 145.113C40.9749 144.635 44.475 143.703 47.0434 143.074C59.9361 139.901 61.6232 139.372 64.2924 137.635C65.4003 136.929 67.44 135.192 68.8249 133.807C71.3178 131.289 77.2605 124.717 78.5699 123.004C79.4512 121.871 81.7175 121.065 84.009 121.065C85.4443 121.065 85.9227 121.217 88.2646 122.35C89.6999 123.055 91.2611 123.936 91.6892 124.339C92.1424 124.717 93.4015 125.648 94.5094 126.404C100.402 130.357 101.963 131.893 110.801 142.343C111.507 143.174 112.388 144.307 112.74 144.861C113.093 145.415 114.226 146.951 115.284 148.261C119.086 153.07 121.277 156.898 121.1 158.484C121.075 158.786 120.144 159.29 118.885 159.718C117.273 160.247 115.334 162.513 115.51 163.672C115.51 163.797 115.41 163.873 115.284 163.873C114.956 163.873 114.956 164.805 115.284 165.006C115.435 165.082 115.535 165.333 115.535 165.535C115.535 166.215 116.568 168.179 116.996 168.33C117.223 168.406 117.6 168.632 117.802 168.808C118.356 169.287 122.939 169.765 123.568 169.438C123.845 169.287 124.953 169.161 126.036 169.161C127.27 169.136 128.227 169.01 128.63 168.783C128.982 168.582 129.46 168.431 129.687 168.406C130.266 168.406 132.91 166.593 132.91 166.215C132.91 166.064 132.81 165.837 132.658 165.762C132.533 165.686 132.407 165.434 132.407 165.208C132.407 164.88 132.482 164.88 132.784 165.132C133.389 165.636 133.842 165.082 133.464 164.326C133.313 163.999 133.137 163.243 133.087 162.614C133.011 161.682 132.986 161.758 132.961 163.042C132.91 164.956 132.407 165.182 132.407 163.294C132.407 160.902 130.745 156.973 125.079 145.995C122.511 141.009 120.521 136.753 119.489 134.008C119.01 132.749 118.381 131.264 118.079 130.685C117.802 130.131 116.946 128.167 116.19 126.303C115.435 124.465 114.453 122.123 114.025 121.091C113.244 119.202 113.043 117.792 113.571 117.792C113.722 117.792 113.773 117.716 113.697 117.641C113.597 117.54 113.345 117.616 113.093 117.817C112.715 118.119 112.69 118.119 112.841 117.716C112.992 117.314 112.589 117.288 106.898 117.263C103.549 117.263 100.301 117.162 99.6715 117.062C98.5384 116.885 98.5635 116.885 100.553 116.659C103.121 116.357 115.561 116.331 119.136 116.608C121.73 116.835 122.838 117.263 120.899 117.314L119.942 117.339L121.075 117.591C122.586 117.893 128.201 117.691 128.327 117.314C128.378 117.162 128.529 117.087 128.655 117.188C128.781 117.263 128.881 117.213 128.881 117.087C128.881 116.936 129.989 116.76 131.349 116.659C132.684 116.558 134.471 116.331 135.302 116.155C136.133 115.979 137.443 115.752 138.198 115.652C140.011 115.45 142.001 114.972 146.76 113.587C155.623 111.043 158.318 110.439 161.239 110.338L164.009 110.238L161.994 110.59C160.886 110.792 159.426 111.169 158.771 111.472C157.034 112.227 150.99 114.141 148.673 114.67C147.591 114.921 146.81 115.173 146.961 115.224C147.087 115.249 147.968 115.123 148.9 114.896C151.494 114.292 151.418 114.267 151.494 116.13C151.569 118.925 154.616 126.177 156.807 128.746C157.311 129.325 158.368 130.609 159.174 131.616C159.98 132.598 162.473 135.091 164.714 137.131C170.354 142.293 171.437 143.426 171.437 144.156C171.437 144.509 171.387 144.534 171.21 144.282C171.084 144.081 170.959 144.584 170.858 145.642C170.757 146.574 170.581 147.405 170.48 147.48C170.354 147.556 170.178 147.883 170.077 148.16C169.825 148.991 167.433 151.434 165.998 152.34C163.606 153.876 159.476 155.765 157.084 156.445C153.433 157.452 150.084 158.081 148.346 158.081C146.961 158.081 146.709 158.157 146.13 158.761C145.073 159.92 144.645 161.078 144.645 162.916C144.619 164.553 144.645 164.628 145.601 165.61C146.155 166.164 146.936 166.693 147.364 166.794C147.792 166.87 148.296 167.071 148.447 167.197C148.825 167.499 151.922 167.927 154.314 168.028C155.926 168.103 158.267 167.7 159.224 167.222C159.501 167.071 160.534 166.643 161.491 166.265C169.171 163.218 169.775 162.966 173.703 160.977C177.581 159.038 178.739 158.409 179.319 157.88C179.772 157.477 180.099 157.276 181.711 156.394C185.085 154.531 188.459 151.408 189.139 149.52C189.592 148.286 189.744 144.736 189.341 144.736C189.215 144.736 189.038 144.257 188.938 143.653C188.837 143.074 188.585 142.419 188.409 142.217C187.628 141.412 185.765 138.264 185.463 137.307C185.286 136.703 185.161 134.814 185.161 132.523C185.186 128.771 185.312 127.713 186.974 118.371C187.351 116.206 187.351 116.004 186.974 115.576C186.495 115.047 186.394 114.267 186.823 114.267C187.251 114.267 188.056 114.745 190.7 116.659C194.276 119.202 197.952 121.695 199.337 122.501C201.906 123.961 200.219 122.753 189.693 115.576C187.905 114.367 184.858 112.479 182.97 111.396C179.948 109.684 178.991 108.979 179.671 108.979C180.502 108.979 184.279 110.565 187.175 112.151C193.294 115.475 195.837 117.087 199.363 119.882C201.251 121.393 203.316 123.03 203.971 123.533C204.625 124.037 205.154 124.616 205.179 124.792C205.179 124.943 205.255 125.069 205.381 125.044C205.482 124.994 206.64 125.523 207.949 126.152C211.198 127.764 220.036 131.364 223.436 132.472C228.598 134.16 229.731 134.437 232.123 134.688C233.432 134.839 234.918 135.016 235.396 135.066C235.875 135.142 236.907 135.268 237.663 135.368C238.519 135.494 239.023 135.67 238.997 135.847C238.947 136.023 239.073 136.098 239.249 136.048C239.803 135.847 242.069 136.325 241.994 136.627C241.969 136.804 242.22 136.929 242.573 136.929C242.926 136.929 243.706 137.181 244.285 137.458C246.401 138.541 246.929 139.095 248.264 141.915C249.825 145.214 250.782 147.077 251.009 147.254C251.16 147.354 252.519 149.369 253.401 150.754C253.552 150.98 254.282 151.887 255.038 152.793C256.599 154.632 258.311 157.099 258.311 157.502C258.311 157.83 260.2 159.592 261.509 160.448C262.944 161.405 266.495 162.261 267.502 161.884C267.93 161.733 268.887 161.506 269.617 161.355C271.204 161.053 272.412 160.222 273.294 158.812C274.15 157.477 274.099 156.545 273.042 154.959C272.362 153.952 271.808 153.473 270.524 152.793C269.617 152.315 268.686 151.736 268.459 151.484C268.232 151.232 267.905 151.031 267.729 151.031C267.2 151.031 263.851 147.757 263.851 147.228C263.851 146.977 263.75 146.7 263.599 146.624C263.473 146.549 262.818 145.39 262.139 144.03C260.905 141.613 259.167 138.415 258.361 137.131C257.757 136.199 256.07 133.656 255.516 132.85C255.239 132.472 255.038 132.12 255.038 132.044C255.038 131.793 253.426 129.476 252.595 128.544C252.142 128.041 251.764 127.461 251.764 127.285C251.764 126.605 248.113 123.156 246.35 122.199C245.393 121.645 244.034 120.864 243.328 120.436C242.649 119.983 241.364 119.252 240.483 118.799C238.997 118.019 234.641 114.015 234.641 113.436C234.641 113.31 234.087 112.58 233.432 111.799C232.752 111.018 231.947 109.961 231.619 109.482C230.713 108.148 227.238 103.892 226.457 103.187C226.08 102.835 225.374 101.978 224.871 101.298C223.662 99.6617 222.277 98.1509 221.975 98.1509C221.547 98.1509 216.863 93.5931 211.601 88.0785C210.09 86.4669 208.478 84.8806 208.025 84.5532C207.093 83.823 206.967 83.2942 207.723 83.2942C208.428 83.2942 209.057 83.6467 210.845 85.0568C212.96 86.6936 218.827 90.6218 220.666 91.6039C221.497 92.0571 222.353 92.5607 222.554 92.7118C222.756 92.8881 223.763 93.5176 224.795 94.1471C228.547 96.4134 229.252 96.8918 230.662 98.0753C231.468 98.7552 232.904 99.8128 233.886 100.442C234.868 101.047 236.857 102.306 238.267 103.237C240.987 105 241.868 105.479 247.03 107.946C254.962 111.723 258.941 113.184 263.851 114.015C265.588 114.317 267.552 114.67 268.232 114.795C270.977 115.274 279.438 115.022 280.848 114.418C284.877 112.68 287.773 110.641 288.704 108.878C289.258 107.82 289.007 106.083 288.176 105.227L287.521 104.572L281.402 104.547C275.812 104.496 274.93 104.421 270.801 103.716C265.79 102.835 262.541 102.054 259.268 100.946C257.153 100.216 252.394 98.2516 251.89 97.8739C251.764 97.7732 250.001 96.8667 247.987 95.8594C243.102 93.4169 234.163 87.8519 229.857 84.5784C229.504 84.3014 227.918 83.2438 226.306 82.2114C223.788 80.5746 219.986 77.8299 217.014 75.5384C214.824 73.8513 212.683 72.5419 210.241 71.3836C208.78 70.7037 206.413 69.5957 204.978 68.9159C202.233 67.6065 197.65 65.9193 196.845 65.9193C196.416 65.9193 194.478 65.1136 190.449 63.2754C188.031 62.1926 183.146 61.2609 176.372 60.6062C170.505 60.0522 158.897 60.7573 147.137 62.3688C140.087 63.3509 131.374 64.6351 130.896 64.7862C130.694 64.8366 128.529 65.2395 126.111 65.6927C115.334 67.6065 115.435 67.5813 115.661 67.9338C116.064 68.5885 110.096 69.3691 105.463 69.2936C104.154 69.2684 102.945 69.3439 102.769 69.495C102.592 69.6461 102.416 69.6209 102.315 69.4447C102.24 69.3188 101.837 69.1929 101.459 69.1929C99.8981 69.1929 94.3835 67.405 94.3835 66.9014C94.3835 66.7755 94.6353 66.6748 94.9627 66.6496C97.2793 66.5992 88.7682 65.1639 86.0235 65.1639C84.5881 65.1639 83.6313 64.9877 82.0197 64.4337C80.8614 64.0308 78.3181 63.3509 76.3792 62.8976C67.3392 60.858 65.0981 60.1026 59.2814 57.1312C56.7884 55.8722 54.5977 54.8398 54.3963 54.8398C53.9682 54.8398 51.3746 53.1275 50.0652 51.9943C49.5867 51.5662 47.8241 50.5842 46.1621 49.7784C43.5937 48.5697 42.8886 48.0913 41.5037 46.6811C39.3129 44.44 36.7193 42.9292 33.622 42.1234C32.2623 41.7709 30.827 41.4939 30.4241 41.4939C28.3592 41.4939 21.6108 39.5801 19.8481 38.4974C18.5135 37.6916 18.4128 37.7671 18.6142 39.4542ZM28.2081 65.7934C29.2909 69.3439 29.4672 69.6965 30.2478 69.6965C30.7766 69.6965 34.6041 65.9949 34.3523 65.7179C34.2516 65.6424 33.8487 65.9445 33.4458 66.3726C32.5141 67.405 31.8594 67.3798 31.0788 66.3474C30.5248 65.6424 29.9456 63.9049 29.9204 62.9732C29.8953 61.8652 35.0825 64.1567 36.0394 65.6927C36.4423 66.3474 36.0646 67.2287 34.8559 68.4878C33.194 70.2253 31.3558 71.2073 29.7442 71.2073C28.2837 71.2073 27.8808 70.8296 27.0498 68.7396C26.2944 66.7503 26.1937 62.1926 26.9491 62.4444C27.1002 62.4947 27.6542 64.0056 28.2081 65.7934ZM82.4478 65.3905C82.3722 65.4913 81.5916 65.6675 80.7355 65.7683C78.1418 66.0704 73.0553 67.3798 70.4113 68.4374C68.0947 69.3691 66.055 70.5526 63.8391 72.2901C61.8246 73.8513 62.706 71.9879 65.0981 69.6461C68.0191 66.8007 73.0553 65.2898 79.98 65.1891C81.4154 65.1891 82.5233 65.2646 82.4478 65.3905ZM96.8009 117.49C96.7253 117.591 95.7936 117.742 94.7109 117.767C93.6281 117.817 92.3439 117.893 91.8654 117.918C91.387 117.943 90.4301 118.019 89.725 118.044L88.466 118.119L89.5991 118.296C90.7323 118.472 90.7323 118.472 89.0955 118.547C88.189 118.598 86.9048 118.623 86.1997 118.623C85.5198 118.623 85.0918 118.673 85.268 118.724C85.7465 118.9 85.6206 119.303 85.0666 119.303C84.4874 119.303 80.9621 120.461 79.9297 120.99C79.5268 121.191 78.8973 121.72 78.5447 122.173C78.1922 122.602 76.8073 124.087 75.4978 125.472C74.1633 126.857 72.5265 128.72 71.8466 129.627C70.512 131.364 68.1702 133.908 67.868 133.908C67.5407 133.908 67.7169 133.278 68.2206 132.649C68.4976 132.296 69.7566 130.483 71.0156 128.62C73.2064 125.346 75.0698 122.929 76.1274 122.022C77.185 121.091 80.257 119.58 82.2967 118.975C84.1097 118.421 86.8544 117.842 89.3473 117.465C90.5812 117.263 96.9268 117.288 96.8009 117.49ZM98.9664 117.591C98.7398 117.817 98.5887 117.817 98.3621 117.591C98.1355 117.364 98.1858 117.288 98.6643 117.288C99.1427 117.288 99.1931 117.364 98.9664 117.591ZM131.928 166.718C131.5 167.147 131.324 166.744 131.702 166.164C131.979 165.711 132.054 165.686 132.104 166.039C132.155 166.265 132.079 166.567 131.928 166.718Z" fill="white"/>
<path d="M16.7005 52.9511C15.7436 53.1274 14.0061 53.3036 12.873 53.3036C11.7147 53.3288 10.783 53.4296 10.783 53.5303C10.783 53.8828 13.5529 57.9117 14.409 58.8183C15.4666 59.9766 18.0602 61.8148 18.9164 62.0162C19.5963 62.1925 19.5963 62.2177 19.6215 64.2573C19.6466 67.8582 20.0243 67.5308 20.1502 63.7789C20.2258 60.9586 20.3517 59.901 20.8301 58.4909C21.7366 55.7462 21.8877 55.4188 22.7691 53.9583L23.6 52.5734L21.0316 52.5986C19.6215 52.5986 17.6825 52.7748 16.7005 52.9511Z" fill="white"/>
<path d="M98.1606 67.1785C98.6642 67.5058 99.2432 67.5058 99.0418 67.1785C98.9663 67.0274 98.639 66.9267 98.3369 66.9267C97.8837 66.9267 97.8585 66.9771 98.1606 67.1785Z" fill="white"/>
<path d="M20.2259 68.1858C20.3266 68.6642 20.5784 69.5707 20.7799 70.2002C20.9813 70.8298 21.1576 72.391 21.1828 73.7759C21.2079 75.1357 21.3087 76.2437 21.4346 76.2437C21.8375 76.2437 21.6108 71.9377 21.082 70.024C20.5029 67.8584 19.9741 66.7253 20.2259 68.1858Z" fill="white"/>
<path d="M51.3746 98.4027C51.3746 98.7552 51.425 98.8811 51.5005 98.7048C51.5509 98.5538 51.5509 98.2517 51.5005 98.0754C51.425 97.9244 51.3746 98.0502 51.3746 98.4027Z" fill="white"/>
<path d="M51.1228 100.04C51.1228 100.442 51.1732 100.593 51.2487 100.342C51.299 100.115 51.299 99.7626 51.2487 99.5863C51.1732 99.4353 51.1228 99.6115 51.1228 100.04Z" fill="white"/>
<path d="M49.8384 107.871C49.8384 108.148 49.914 108.223 49.9895 108.022C50.065 107.845 50.0399 107.619 49.9643 107.543C49.8888 107.443 49.8133 107.594 49.8384 107.871Z" fill="white"/>
<path d="M49.6119 108.979C49.6119 109.331 49.6623 109.457 49.7378 109.281C49.7882 109.13 49.7882 108.828 49.7378 108.651C49.6623 108.5 49.6119 108.626 49.6119 108.979Z" fill="white"/>
<path d="M49.0075 112.127C48.9068 112.681 48.8313 113.587 48.8313 114.141L48.8565 115.148L49.0831 114.317C49.2341 113.839 49.3097 112.933 49.2593 112.303L49.1838 111.12L49.0075 112.127Z" fill="white"/>
<path d="M145.954 115.45C146.13 115.526 146.357 115.501 146.432 115.425C146.533 115.35 146.382 115.274 146.105 115.299C145.828 115.299 145.753 115.375 145.954 115.45Z" fill="white"/>
<path d="M144.443 115.702C144.594 115.752 144.896 115.752 145.073 115.702C145.224 115.626 145.098 115.576 144.745 115.576C144.393 115.576 144.267 115.626 144.443 115.702Z" fill="white"/>
<path d="M143.184 115.954C143.335 116.004 143.637 116.004 143.813 115.954C143.965 115.878 143.839 115.828 143.486 115.828C143.134 115.828 143.008 115.878 143.184 115.954Z" fill="white"/>
<path d="M48.2018 117.163C48.1263 117.389 48.0759 118.044 48.0759 118.623C48.1263 119.63 48.1263 119.605 48.3025 118.296C48.4788 116.81 48.4536 116.508 48.2018 117.163Z" fill="white"/>
<path d="M114.151 117.49C113.899 117.742 114.025 118.699 114.402 119.202C114.604 119.454 114.78 119.832 114.78 120.033C114.78 120.638 116.442 124.616 118.305 128.494C120.093 132.221 124.097 141.588 124.097 142.066C124.097 142.192 124.55 143.225 125.079 144.333C126.439 147.153 127.371 149.293 127.371 149.596C127.371 149.721 127.799 150.477 128.327 151.257C128.856 152.038 129.687 153.322 130.166 154.153C130.644 154.959 131.324 156.143 131.702 156.797C132.079 157.427 132.583 158.56 132.835 159.29C133.061 159.995 133.338 160.6 133.464 160.6C133.716 160.6 133.741 159.743 133.489 159.492C133.389 159.416 133.288 159.164 133.263 158.963C133.187 158.384 132.13 156.294 131.525 155.438C131.047 154.808 130.493 153.826 128.378 149.948C128.227 149.721 128 149.319 127.874 149.067C127.723 148.84 127.547 148.462 127.471 148.261C127.396 148.06 126.615 146.297 125.759 144.358C124.878 142.419 123.795 139.926 123.367 138.818C121.654 134.638 120.672 132.397 118.557 127.864C117.349 125.296 116.165 122.627 115.913 121.947C115.687 121.242 115.233 120.084 114.956 119.353C114.327 117.742 114.453 117.591 116.392 117.717C117.147 117.767 118.028 117.691 118.356 117.54C118.784 117.364 118.331 117.314 116.618 117.339C115.334 117.339 114.226 117.414 114.151 117.49Z" fill="white"/>
<path d="M201.402 123.684C201.402 123.76 202.057 124.163 202.863 124.616C203.643 125.044 205.582 126.152 207.144 127.033C211.097 129.274 218.878 133.001 222.051 134.185C223.511 134.714 225.727 135.368 226.961 135.67C228.22 135.947 229.68 136.275 230.234 136.426C231.242 136.678 239.627 136.778 239.375 136.552C239.3 136.476 237.109 136.3 234.49 136.174C231.418 136.023 229.026 135.771 227.716 135.444C222.756 134.235 215.428 131.062 206.69 126.303C205.784 125.825 204.449 125.12 203.719 124.717C202.989 124.339 202.334 123.936 202.258 123.81C202.133 123.584 201.402 123.483 201.402 123.684Z" fill="white"/>
<path d="M240.835 136.904C240.382 137.081 240.382 137.106 240.785 137.257C241.515 137.559 241.943 137.458 241.792 137.056C241.616 136.628 241.54 136.628 240.835 136.904Z" fill="white"/>
<path d="M242.447 137.937C242.447 138.063 242.624 138.189 242.825 138.189C243.026 138.189 243.656 138.592 244.21 139.095C244.764 139.599 245.292 139.951 245.368 139.876C245.569 139.699 244.26 138.516 243.656 138.315C243.404 138.214 243.203 138.038 243.203 137.912C243.203 137.786 243.026 137.685 242.825 137.685C242.624 137.685 242.447 137.786 242.447 137.937Z" fill="white"/>
<path d="M246.728 141.21C246.728 141.336 246.854 141.462 246.98 141.462C247.131 141.462 247.231 141.336 247.231 141.21C247.231 141.059 247.131 140.958 246.98 140.958C246.854 140.958 246.728 141.059 246.728 141.21Z" fill="white"/>
<path d="M247.483 141.966C247.483 142.092 247.66 142.218 247.886 142.218C248.088 142.218 248.188 142.092 248.113 141.966C248.037 141.815 247.861 141.714 247.71 141.714C247.584 141.714 247.483 141.815 247.483 141.966Z" fill="white"/>
<path d="M133.993 162.74C133.993 163.294 134.043 163.495 134.094 163.168C134.144 162.866 134.144 162.413 134.094 162.161C134.018 161.934 133.968 162.186 133.993 162.74Z" fill="white"/>
<path d="M78.8161 204V181.6H88.4481C90.8801 181.6 92.7895 182.091 94.1761 183.072C95.5628 184.053 96.2561 185.483 96.2561 187.36C96.2561 189.195 95.5948 190.603 94.2721 191.584C92.9495 192.544 91.2108 193.024 89.0561 193.024L89.6321 192.064C92.1281 192.064 94.0375 192.565 95.3601 193.568C96.7041 194.549 97.3761 195.989 97.3761 197.888C97.3761 199.808 96.6721 201.312 95.2641 202.4C93.8775 203.467 91.8081 204 89.0561 204H78.8161ZM81.9841 201.472H88.9921C90.6988 201.472 91.9788 201.163 92.8321 200.544C93.7068 199.904 94.1441 198.933 94.1441 197.632C94.1441 196.331 93.7068 195.381 92.8321 194.784C91.9788 194.187 90.6988 193.888 88.9921 193.888H81.9841V201.472ZM81.9841 191.456H88.2241C89.7815 191.456 90.9655 191.147 91.7761 190.528C92.6081 189.909 93.0241 189.003 93.0241 187.808C93.0241 186.592 92.6081 185.675 91.7761 185.056C90.9655 184.437 89.7815 184.128 88.2241 184.128H81.9841V191.456ZM99.6184 204L109.762 181.6H112.93L123.106 204H119.746L110.69 183.392H111.97L102.914 204H99.6184ZM103.938 198.4L104.802 195.84H117.41L118.338 198.4H103.938ZM150.998 204L143.99 192.96L146.678 191.36L154.742 204H150.998ZM139.51 194.144V191.328H146.07V194.144H139.51ZM146.87 193.152L143.894 192.704L150.774 181.6H154.198L146.87 193.152ZM126.774 204H123.03L131.062 191.36L133.782 192.96L126.774 204ZM140.47 204H137.334V181.6H140.47V204ZM138.294 194.144H131.702V191.328H138.294V194.144ZM130.934 193.152L123.574 181.6H126.998L133.846 192.704L130.934 193.152ZM174.161 181.6H177.361V204H174.161V181.6ZM161.297 204H158.097V181.6H161.297V204ZM174.449 194.016H160.977V191.232H174.449V194.016ZM181.243 204L191.387 181.6H194.555L204.731 204H201.371L192.315 183.392H193.595L184.539 204H181.243ZM185.563 198.4L186.427 195.84H199.035L199.963 198.4H185.563ZM208.181 196.928L207.605 181.6H211.221L210.613 196.928H208.181ZM209.429 204.192C208.832 204.192 208.331 203.989 207.925 203.584C207.52 203.179 207.317 202.699 207.317 202.144C207.317 201.547 207.52 201.056 207.925 200.672C208.331 200.288 208.832 200.096 209.429 200.096C210.027 200.096 210.517 200.288 210.901 200.672C211.285 201.056 211.477 201.547 211.477 202.144C211.477 202.699 211.285 203.179 210.901 203.584C210.517 203.989 210.027 204.192 209.429 204.192Z" fill="white"/>
</svg>
