<svg width="108" height="108" viewBox="0 0 108 108" fill="none" xmlns="http://www.w3.org/2000/svg">
<path d="M108 54C108 83.8234 83.8234 108 54 108C24.1766 108 0 83.8234 0 54C0 24.1766 24.1766 0 54 0C83.8234 0 108 24.1766 108 54ZM6.75235 54C6.75235 80.0942 27.9058 101.248 54 101.248C80.0942 101.248 101.248 80.0942 101.248 54C101.248 27.9058 80.0942 6.75235 54 6.75235C27.9058 6.75235 6.75235 27.9058 6.75235 54Z" fill="white"/>
<path d="M54 108C44.7606 108 35.6758 105.629 27.6144 101.115C19.5531 96.6002 12.785 90.0928 7.95743 82.2149C3.12987 74.3371 0.404366 65.3523 0.0416317 56.12C-0.321103 46.8878 1.69106 37.7169 5.88565 29.4845C10.0802 21.2522 16.317 14.2338 23.9992 9.10063C31.6815 3.96751 40.5523 0.891373 49.7632 0.166463C58.9741 -0.558448 68.217 1.09212 76.6076 4.96028C84.9983 8.82844 92.2562 14.7848 97.6869 22.2596L92.2242 26.2285C87.4725 19.6884 81.1222 14.4768 73.7807 11.0924C66.4392 7.7079 58.3521 6.26373 50.293 6.898C42.2339 7.53226 34.4723 10.2237 27.7506 14.715C21.029 19.2063 15.5721 25.3471 11.902 32.55C8.23195 39.753 6.4714 47.7771 6.78878 55.8549C7.10615 63.9327 9.49085 71.794 13.7148 78.6868C17.9387 85.5796 23.8605 91.2733 30.9138 95.2234C37.9671 99.1734 45.9159 101.248 54 101.248V108Z" fill="#0DB2A2"/>
<path d="M31.5399 67.216C29.3079 67.216 27.4239 66.724 25.8879 65.74C24.3519 64.732 23.1879 63.292 22.3959 61.42C21.6039 59.524 21.2079 57.256 21.2079 54.616C21.2079 51.76 21.6879 49.372 22.6479 47.452C23.6319 45.508 24.9879 44.044 26.7159 43.06C28.4439 42.076 30.4479 41.584 32.7279 41.584C33.8559 41.584 34.9359 41.692 35.9679 41.908C36.9999 42.124 37.9119 42.472 38.7039 42.952L37.6599 45.04C37.0119 44.608 36.2679 44.308 35.4279 44.14C34.5879 43.948 33.6999 43.852 32.7639 43.852C30.0519 43.852 27.8799 44.716 26.2479 46.444C24.6399 48.172 23.8359 50.752 23.8359 54.184C23.8359 54.712 23.8599 55.372 23.9079 56.164C23.9799 56.932 24.1239 57.7 24.3399 58.468L23.4399 57.784C23.7039 56.536 24.2199 55.48 24.9879 54.616C25.7559 53.728 26.7159 53.056 27.8679 52.6C29.0199 52.144 30.2799 51.916 31.6479 51.916C33.3279 51.916 34.8039 52.228 36.0759 52.852C37.3479 53.476 38.3439 54.352 39.0639 55.48C39.7839 56.608 40.1439 57.94 40.1439 59.476C40.1439 61.036 39.7719 62.404 39.0279 63.58C38.2839 64.732 37.2519 65.632 35.9319 66.28C34.6359 66.904 33.1719 67.216 31.5399 67.216ZM31.4319 65.02C32.6319 65.02 33.6879 64.804 34.5999 64.372C35.5359 63.916 36.2679 63.28 36.7959 62.464C37.3239 61.624 37.5879 60.652 37.5879 59.548C37.5879 57.892 37.0119 56.572 35.8599 55.588C34.7319 54.604 33.1959 54.112 31.2519 54.112C29.9559 54.112 28.8279 54.352 27.8679 54.832C26.9079 55.312 26.1519 55.972 25.5999 56.812C25.0479 57.628 24.7719 58.564 24.7719 59.62C24.7719 60.532 25.0239 61.408 25.5279 62.248C26.0319 63.064 26.7759 63.736 27.7599 64.264C28.7679 64.768 29.9919 65.02 31.4319 65.02ZM51.1014 67.216C49.3014 67.216 47.5854 66.928 45.9534 66.352C44.3214 65.752 43.0254 64.96 42.0654 63.976L43.3254 61.924C44.1174 62.764 45.1974 63.46 46.5654 64.012C47.9574 64.564 49.4574 64.84 51.0654 64.84C53.2014 64.84 54.8214 64.372 55.9254 63.436C57.0534 62.476 57.6174 61.228 57.6174 59.692C57.6174 58.612 57.3534 57.688 56.8254 56.92C56.3214 56.128 55.4574 55.516 54.2334 55.084C53.0094 54.652 51.3294 54.436 49.1934 54.436H43.8294L45.1254 41.8H58.9134V44.104H46.1694L47.5014 42.844L46.3854 53.428L45.0534 52.132H49.7694C52.3134 52.132 54.3534 52.444 55.8894 53.068C57.4254 53.692 58.5294 54.568 59.2014 55.696C59.8974 56.8 60.2454 58.096 60.2454 59.584C60.2454 61 59.9094 62.296 59.2374 63.472C58.5654 64.624 57.5574 65.536 56.2134 66.208C54.8694 66.88 53.1654 67.216 51.1014 67.216Z" fill="black"/>
<path d="M73.5548 63L85.0268 46.2H86.4428L74.9708 63H73.5548ZM74.8508 55.2C74.0988 55.2 73.4348 55.016 72.8588 54.648C72.2828 54.264 71.8348 53.728 71.5148 53.04C71.2108 52.352 71.0588 51.552 71.0588 50.64C71.0588 49.728 71.2108 48.928 71.5148 48.24C71.8348 47.552 72.2828 47.024 72.8588 46.656C73.4348 46.272 74.0988 46.08 74.8508 46.08C75.6028 46.08 76.2588 46.272 76.8188 46.656C77.3948 47.024 77.8428 47.552 78.1628 48.24C78.4828 48.928 78.6428 49.728 78.6428 50.64C78.6428 51.552 78.4828 52.352 78.1628 53.04C77.8428 53.728 77.3948 54.264 76.8188 54.648C76.2588 55.016 75.6028 55.2 74.8508 55.2ZM74.8508 54.12C75.6348 54.12 76.2588 53.816 76.7228 53.208C77.2028 52.584 77.4428 51.728 77.4428 50.64C77.4428 49.552 77.2028 48.704 76.7228 48.096C76.2588 47.472 75.6348 47.16 74.8508 47.16C74.0508 47.16 73.4188 47.472 72.9548 48.096C72.4908 48.704 72.2588 49.552 72.2588 50.64C72.2588 51.728 72.4908 52.584 72.9548 53.208C73.4188 53.816 74.0508 54.12 74.8508 54.12ZM85.1468 63.12C84.4108 63.12 83.7548 62.936 83.1788 62.568C82.6028 62.184 82.1548 61.648 81.8348 60.96C81.5148 60.272 81.3548 59.472 81.3548 58.56C81.3548 57.648 81.5148 56.848 81.8348 56.16C82.1548 55.472 82.6028 54.944 83.1788 54.576C83.7548 54.192 84.4108 54 85.1468 54C85.9148 54 86.5788 54.192 87.1388 54.576C87.7148 54.944 88.1548 55.472 88.4588 56.16C88.7788 56.848 88.9388 57.648 88.9388 58.56C88.9388 59.472 88.7788 60.272 88.4588 60.96C88.1548 61.648 87.7148 62.184 87.1388 62.568C86.5788 62.936 85.9148 63.12 85.1468 63.12ZM85.1468 62.04C85.9308 62.04 86.5548 61.736 87.0188 61.128C87.4988 60.504 87.7388 59.648 87.7388 58.56C87.7388 57.472 87.4988 56.624 87.0188 56.016C86.5548 55.392 85.9308 55.08 85.1468 55.08C84.3628 55.08 83.7308 55.392 83.2508 56.016C82.7868 56.624 82.5548 57.472 82.5548 58.56C82.5548 59.648 82.7868 60.504 83.2508 61.128C83.7308 61.736 84.3628 62.04 85.1468 62.04Z" fill="black"/>
</svg>
