<svg width="108" height="109" viewBox="0 0 108 109" fill="none" xmlns="http://www.w3.org/2000/svg">
<path d="M108 54C108 83.8234 83.8234 108 54 108C24.1766 108 0 83.8234 0 54C0 24.1766 24.1766 0 54 0C83.8234 0 108 24.1766 108 54ZM6.75235 54C6.75235 80.0942 27.9058 101.248 54 101.248C80.0942 101.248 101.248 80.0942 101.248 54C101.248 27.9058 80.0942 6.75235 54 6.75235C27.9058 6.75235 6.75235 27.9058 6.75235 54Z" fill="white"/>
<path d="M54 109C45.4782 109 37.0775 106.983 29.4845 103.114C21.8916 99.2456 15.322 93.6347 10.3131 86.7404C5.30412 79.8462 1.99793 71.8643 0.66483 63.4475C-0.668268 55.0306 0.00957887 46.4178 2.64295 38.3131L9.06481 40.3997C6.76073 47.4909 6.16764 55.0268 7.33405 62.3912C8.50045 69.7555 11.3932 76.7393 15.7758 82.7715C20.1585 88.8036 25.9065 93.7129 32.55 97.098C39.1935 100.483 46.5438 102.248 54 102.248V109Z" fill="#0DB2A2"/>
<path d="M27.8179 68.216C25.9939 68.216 24.2659 67.928 22.6339 67.352C21.0259 66.752 19.7299 65.96 18.7459 64.976L20.0059 62.924C20.8219 63.764 21.9139 64.46 23.2819 65.012C24.6739 65.564 26.1859 65.84 27.8179 65.84C29.9059 65.84 31.5019 65.384 32.6059 64.472C33.7339 63.56 34.2979 62.336 34.2979 60.8C34.2979 59.264 33.7459 58.04 32.6419 57.128C31.5619 56.216 29.8459 55.76 27.4939 55.76H25.6939V53.852L33.4699 44.096L33.8299 45.104H19.7899V42.8H35.9899V44.636L28.2139 54.392L26.9539 53.564H27.9259C30.9499 53.564 33.2059 54.236 34.6939 55.58C36.2059 56.924 36.9619 58.652 36.9619 60.764C36.9619 62.18 36.6259 63.452 35.9539 64.58C35.2819 65.708 34.2619 66.596 32.8939 67.244C31.5499 67.892 29.8579 68.216 27.8179 68.216ZM50.6582 68.216C48.7142 68.216 46.9862 67.712 45.4742 66.704C43.9622 65.672 42.7742 64.208 41.9102 62.312C41.0462 60.392 40.6142 58.088 40.6142 55.4C40.6142 52.712 41.0462 50.42 41.9102 48.524C42.7742 46.604 43.9622 45.14 45.4742 44.132C46.9862 43.1 48.7142 42.584 50.6582 42.584C52.6022 42.584 54.3302 43.1 55.8422 44.132C57.3542 45.14 58.5422 46.604 59.4062 48.524C60.2942 50.42 60.7382 52.712 60.7382 55.4C60.7382 58.088 60.2942 60.392 59.4062 62.312C58.5422 64.208 57.3542 65.672 55.8422 66.704C54.3302 67.712 52.6022 68.216 50.6582 68.216ZM50.6582 65.84C52.1462 65.84 53.4422 65.444 54.5462 64.652C55.6502 63.836 56.5142 62.66 57.1382 61.124C57.7622 59.564 58.0742 57.656 58.0742 55.4C58.0742 53.144 57.7622 51.248 57.1382 49.712C56.5142 48.152 55.6502 46.976 54.5462 46.184C53.4422 45.368 52.1462 44.96 50.6582 44.96C49.2182 44.96 47.9342 45.368 46.8062 46.184C45.6782 46.976 44.8022 48.152 44.1782 49.712C43.5542 51.248 43.2422 53.144 43.2422 55.4C43.2422 57.656 43.5542 59.564 44.1782 61.124C44.8022 62.66 45.6782 63.836 46.8062 64.652C47.9342 65.444 49.2182 65.84 50.6582 65.84Z" fill="black"/>
<path d="M74.5548 64L86.0268 47.2H87.4428L75.9708 64H74.5548ZM75.8508 56.2C75.0988 56.2 74.4348 56.016 73.8588 55.648C73.2828 55.264 72.8348 54.728 72.5148 54.04C72.2108 53.352 72.0588 52.552 72.0588 51.64C72.0588 50.728 72.2108 49.928 72.5148 49.24C72.8348 48.552 73.2828 48.024 73.8588 47.656C74.4348 47.272 75.0988 47.08 75.8508 47.08C76.6028 47.08 77.2588 47.272 77.8188 47.656C78.3948 48.024 78.8428 48.552 79.1628 49.24C79.4828 49.928 79.6428 50.728 79.6428 51.64C79.6428 52.552 79.4828 53.352 79.1628 54.04C78.8428 54.728 78.3948 55.264 77.8188 55.648C77.2588 56.016 76.6028 56.2 75.8508 56.2ZM75.8508 55.12C76.6348 55.12 77.2588 54.816 77.7228 54.208C78.2028 53.584 78.4428 52.728 78.4428 51.64C78.4428 50.552 78.2028 49.704 77.7228 49.096C77.2588 48.472 76.6348 48.16 75.8508 48.16C75.0508 48.16 74.4188 48.472 73.9548 49.096C73.4908 49.704 73.2588 50.552 73.2588 51.64C73.2588 52.728 73.4908 53.584 73.9548 54.208C74.4188 54.816 75.0508 55.12 75.8508 55.12ZM86.1468 64.12C85.4108 64.12 84.7548 63.936 84.1788 63.568C83.6028 63.184 83.1548 62.648 82.8348 61.96C82.5148 61.272 82.3548 60.472 82.3548 59.56C82.3548 58.648 82.5148 57.848 82.8348 57.16C83.1548 56.472 83.6028 55.944 84.1788 55.576C84.7548 55.192 85.4108 55 86.1468 55C86.9148 55 87.5788 55.192 88.1388 55.576C88.7148 55.944 89.1548 56.472 89.4588 57.16C89.7788 57.848 89.9388 58.648 89.9388 59.56C89.9388 60.472 89.7788 61.272 89.4588 61.96C89.1548 62.648 88.7148 63.184 88.1388 63.568C87.5788 63.936 86.9148 64.12 86.1468 64.12ZM86.1468 63.04C86.9308 63.04 87.5548 62.736 88.0188 62.128C88.4988 61.504 88.7388 60.648 88.7388 59.56C88.7388 58.472 88.4988 57.624 88.0188 57.016C87.5548 56.392 86.9308 56.08 86.1468 56.08C85.3628 56.08 84.7308 56.392 84.2508 57.016C83.7868 57.624 83.5548 58.472 83.5548 59.56C83.5548 60.648 83.7868 61.504 84.2508 62.128C84.7308 62.736 85.3628 63.04 86.1468 63.04Z" fill="black"/>
</svg>
