<svg width="108" height="108" viewBox="0 0 108 108" fill="none" xmlns="http://www.w3.org/2000/svg">
<path d="M108 54C108 83.8234 83.8234 108 54 108C24.1766 108 0 83.8234 0 54C0 24.1766 24.1766 0 54 0C83.8234 0 108 24.1766 108 54ZM6.75235 54C6.75235 80.0942 27.9058 101.248 54 101.248C80.0942 101.248 101.248 80.0942 101.248 54C101.248 27.9058 80.0942 6.75235 54 6.75235C27.9058 6.75235 6.75235 27.9058 6.75235 54Z" fill="white"/>
<path d="M54 108C41.1424 108 28.7068 103.412 18.9298 95.0619C9.15283 86.7116 2.6762 75.1467 0.664829 62.4475C-1.34654 49.7482 1.23937 36.748 7.95743 25.7851C14.6755 14.8222 25.0848 6.61615 37.3131 2.64295C49.5414 -1.33026 62.7861 -0.809873 74.6649 4.11051C86.5438 9.03089 96.2771 18.0283 102.114 29.4845C107.952 40.9407 109.51 54.1037 106.508 66.6061C103.506 79.1084 96.1424 90.1294 85.7404 97.6869L81.7715 92.2242C90.8728 85.6117 97.316 75.9687 99.9422 65.0297C102.568 54.0908 101.205 42.5737 96.098 32.55C90.9907 22.5264 82.4744 14.654 72.0809 10.3489C61.6874 6.04375 50.0989 5.58843 39.3997 9.06481C28.7005 12.5412 19.5928 19.7211 13.7148 29.3132C7.83675 38.9052 5.57419 50.2799 7.33405 61.3912C9.0939 72.5025 14.7607 82.6212 23.3151 89.9274C31.8695 97.2336 42.7502 101.248 54 101.248V108Z" fill="#0DB2A2"/>
<path d="M26.8333 41.584C29.0653 41.584 30.9493 42.088 32.4853 43.096C34.0213 44.08 35.1853 45.508 35.9773 47.38C36.7693 49.252 37.1653 51.52 37.1653 54.184C37.1653 57.016 36.6733 59.404 35.6893 61.348C34.7293 63.292 33.3853 64.756 31.6573 65.74C29.9293 66.724 27.9253 67.216 25.6453 67.216C24.5173 67.216 23.4373 67.108 22.4053 66.892C21.3973 66.676 20.4853 66.328 19.6693 65.848L20.7133 63.76C21.3613 64.192 22.1053 64.504 22.9453 64.696C23.8093 64.864 24.6973 64.948 25.6093 64.948C28.3213 64.948 30.4813 64.084 32.0893 62.356C33.7213 60.628 34.5373 58.048 34.5373 54.616C34.5373 54.064 34.5013 53.404 34.4293 52.636C34.3813 51.868 34.2493 51.1 34.0333 50.332L34.9333 51.016C34.6933 52.264 34.1773 53.332 33.3853 54.22C32.6173 55.084 31.6573 55.744 30.5053 56.2C29.3773 56.656 28.1173 56.884 26.7253 56.884C25.0693 56.884 23.5933 56.572 22.2973 55.948C21.0253 55.324 20.0293 54.448 19.3093 53.32C18.5893 52.192 18.2293 50.86 18.2293 49.324C18.2293 47.74 18.6013 46.372 19.3453 45.22C20.0893 44.068 21.1093 43.18 22.4053 42.556C23.7253 41.908 25.2013 41.584 26.8333 41.584ZM26.9413 43.78C25.7413 43.78 24.6733 44.008 23.7373 44.464C22.8253 44.896 22.1053 45.52 21.5773 46.336C21.0493 47.152 20.7853 48.124 20.7853 49.252C20.7853 50.908 21.3493 52.228 22.4773 53.212C23.6293 54.196 25.1773 54.688 27.1213 54.688C28.4173 54.688 29.5453 54.448 30.5053 53.968C31.4893 53.488 32.2453 52.828 32.7733 51.988C33.3253 51.148 33.6013 50.212 33.6013 49.18C33.6013 48.244 33.3493 47.368 32.8453 46.552C32.3413 45.736 31.5973 45.076 30.6133 44.572C29.6293 44.044 28.4053 43.78 26.9413 43.78ZM50.9668 67.216C49.0228 67.216 47.2948 66.712 45.7828 65.704C44.2708 64.672 43.0828 63.208 42.2188 61.312C41.3548 59.392 40.9228 57.088 40.9228 54.4C40.9228 51.712 41.3548 49.42 42.2188 47.524C43.0828 45.604 44.2708 44.14 45.7828 43.132C47.2948 42.1 49.0228 41.584 50.9668 41.584C52.9108 41.584 54.6388 42.1 56.1508 43.132C57.6628 44.14 58.8508 45.604 59.7148 47.524C60.6028 49.42 61.0468 51.712 61.0468 54.4C61.0468 57.088 60.6028 59.392 59.7148 61.312C58.8508 63.208 57.6628 64.672 56.1508 65.704C54.6388 66.712 52.9108 67.216 50.9668 67.216ZM50.9668 64.84C52.4548 64.84 53.7508 64.444 54.8548 63.652C55.9588 62.836 56.8228 61.66 57.4468 60.124C58.0708 58.564 58.3828 56.656 58.3828 54.4C58.3828 52.144 58.0708 50.248 57.4468 48.712C56.8228 47.152 55.9588 45.976 54.8548 45.184C53.7508 44.368 52.4548 43.96 50.9668 43.96C49.5268 43.96 48.2428 44.368 47.1148 45.184C45.9868 45.976 45.1108 47.152 44.4868 48.712C43.8628 50.248 43.5508 52.144 43.5508 54.4C43.5508 56.656 43.8628 58.564 44.4868 60.124C45.1108 61.66 45.9868 62.836 47.1148 63.652C48.2428 64.444 49.5268 64.84 50.9668 64.84Z" fill="black"/>
<path d="M74.5548 63L86.0268 46.2H87.4428L75.9708 63H74.5548ZM75.8508 55.2C75.0988 55.2 74.4348 55.016 73.8588 54.648C73.2828 54.264 72.8348 53.728 72.5148 53.04C72.2108 52.352 72.0588 51.552 72.0588 50.64C72.0588 49.728 72.2108 48.928 72.5148 48.24C72.8348 47.552 73.2828 47.024 73.8588 46.656C74.4348 46.272 75.0988 46.08 75.8508 46.08C76.6028 46.08 77.2588 46.272 77.8188 46.656C78.3948 47.024 78.8428 47.552 79.1628 48.24C79.4828 48.928 79.6428 49.728 79.6428 50.64C79.6428 51.552 79.4828 52.352 79.1628 53.04C78.8428 53.728 78.3948 54.264 77.8188 54.648C77.2588 55.016 76.6028 55.2 75.8508 55.2ZM75.8508 54.12C76.6348 54.12 77.2588 53.816 77.7228 53.208C78.2028 52.584 78.4428 51.728 78.4428 50.64C78.4428 49.552 78.2028 48.704 77.7228 48.096C77.2588 47.472 76.6348 47.16 75.8508 47.16C75.0508 47.16 74.4188 47.472 73.9548 48.096C73.4908 48.704 73.2588 49.552 73.2588 50.64C73.2588 51.728 73.4908 52.584 73.9548 53.208C74.4188 53.816 75.0508 54.12 75.8508 54.12ZM86.1468 63.12C85.4108 63.12 84.7548 62.936 84.1788 62.568C83.6028 62.184 83.1548 61.648 82.8348 60.96C82.5148 60.272 82.3548 59.472 82.3548 58.56C82.3548 57.648 82.5148 56.848 82.8348 56.16C83.1548 55.472 83.6028 54.944 84.1788 54.576C84.7548 54.192 85.4108 54 86.1468 54C86.9148 54 87.5788 54.192 88.1388 54.576C88.7148 54.944 89.1548 55.472 89.4588 56.16C89.7788 56.848 89.9388 57.648 89.9388 58.56C89.9388 59.472 89.7788 60.272 89.4588 60.96C89.1548 61.648 88.7148 62.184 88.1388 62.568C87.5788 62.936 86.9148 63.12 86.1468 63.12ZM86.1468 62.04C86.9308 62.04 87.5548 61.736 88.0188 61.128C88.4988 60.504 88.7388 59.648 88.7388 58.56C88.7388 57.472 88.4988 56.624 88.0188 56.016C87.5548 55.392 86.9308 55.08 86.1468 55.08C85.3628 55.08 84.7308 55.392 84.2508 56.016C83.7868 56.624 83.5548 57.472 83.5548 58.56C83.5548 59.648 83.7868 60.504 84.2508 61.128C84.7308 61.736 85.3628 62.04 86.1468 62.04Z" fill="black"/>
</svg>
