<svg width="116" height="80" viewBox="0 0 116 80" fill="none" xmlns="http://www.w3.org/2000/svg">
<path d="M4.01618 47V41.05H9.02268V47H8.40218V41.424L8.56368 41.594H4.47518L4.63668 41.424V47H4.01618ZM11.0303 47V41.05H13.2573C13.7617 41.05 14.1952 41.1322 14.5578 41.2965C14.9205 41.4552 15.1982 41.6875 15.3908 41.9935C15.5892 42.2938 15.6883 42.6593 15.6883 43.09C15.6883 43.5093 15.5892 43.872 15.3908 44.178C15.1982 44.4783 14.9205 44.7107 14.5578 44.875C14.1952 45.0393 13.7617 45.1215 13.2573 45.1215H11.3788L11.6593 44.824V47H11.0303ZM11.6593 44.875L11.3788 44.569H13.2403C13.8353 44.569 14.2858 44.4415 14.5918 44.1865C14.9035 43.9258 15.0593 43.5603 15.0593 43.09C15.0593 42.614 14.9035 42.2457 14.5918 41.985C14.2858 41.7243 13.8353 41.594 13.2403 41.594H11.3788L11.6593 41.2965V44.875ZM16.9737 47V41.05H17.5942V45.98L21.4022 41.05H21.9717V47H21.3512V42.0785L17.5432 47H16.9737ZM23.9796 47V41.05H24.6001V43.6935H26.1386V44.263H24.6001V47H23.9796ZM28.7821 47.051C28.3571 47.051 27.9632 46.9773 27.6006 46.83C27.2436 46.677 26.9291 46.4645 26.6571 46.1925C26.3907 45.9205 26.1839 45.6003 26.0366 45.232C25.8892 44.8637 25.8156 44.4613 25.8156 44.025C25.8156 43.5887 25.8892 43.1863 26.0366 42.818C26.1839 42.4497 26.3907 42.1295 26.6571 41.8575C26.9291 41.5855 27.2436 41.3758 27.6006 41.2285C27.9632 41.0755 28.3571 40.999 28.7821 40.999C29.2071 40.999 29.6009 41.0755 29.9636 41.2285C30.3262 41.3758 30.6407 41.5855 30.9071 41.8575C31.1734 42.1295 31.3802 42.4497 31.5276 42.818C31.6806 43.1863 31.7571 43.5887 31.7571 44.025C31.7571 44.4613 31.6806 44.8637 31.5276 45.232C31.3802 45.6003 31.1734 45.9205 30.9071 46.1925C30.6407 46.4645 30.3262 46.677 29.9636 46.83C29.6009 46.9773 29.2071 47.051 28.7821 47.051ZM28.7821 46.49C29.1164 46.49 29.4252 46.4305 29.7086 46.3115C29.9976 46.1868 30.2469 46.014 30.4566 45.793C30.6662 45.572 30.8306 45.3142 30.9496 45.0195C31.0686 44.7192 31.1281 44.3877 31.1281 44.025C31.1281 43.6623 31.0686 43.3337 30.9496 43.039C30.8306 42.7387 30.6662 42.478 30.4566 42.257C30.2469 42.036 29.9976 41.866 29.7086 41.747C29.4252 41.6223 29.1164 41.56 28.7821 41.56C28.4534 41.56 28.1446 41.6223 27.8556 41.747C27.5722 41.866 27.3257 42.036 27.1161 42.257C26.9064 42.478 26.7421 42.7387 26.6231 43.039C26.5041 43.3337 26.4446 43.6623 26.4446 44.025C26.4446 44.3877 26.5041 44.7192 26.6231 45.0195C26.7421 45.3142 26.9064 45.572 27.1161 45.793C27.3257 46.014 27.5722 46.1868 27.8556 46.3115C28.1446 46.4305 28.4534 46.49 28.7821 46.49ZM34.3583 47V41.424L34.5283 41.594H32.2673V41.05H37.0698V41.594H34.8173L34.9788 41.424V47H34.3583ZM44.351 46.7025V41.594H41.5035L41.4525 43.039C41.4355 43.4867 41.4072 43.9173 41.3675 44.331C41.3335 44.739 41.2768 45.1073 41.1975 45.436C41.1238 45.759 41.0218 46.0225 40.8915 46.2265C40.7668 46.4305 40.6025 46.5495 40.3985 46.5835L39.71 46.456C39.9367 46.4673 40.1237 46.3852 40.271 46.2095C40.424 46.0338 40.5402 45.7873 40.6195 45.47C40.7045 45.1527 40.7668 44.7815 40.8065 44.3565C40.8462 43.9315 40.8745 43.4725 40.8915 42.9795L40.9595 41.05H44.9715V46.7025H44.351ZM39.489 48.3345L39.4975 46.456H45.864V48.3345H45.2775V47H40.084L40.0755 48.3345H39.489ZM46.7135 47.051C46.6342 47.051 46.5577 47.0453 46.484 47.034C46.4104 47.0283 46.3282 47.0142 46.2375 46.9915L46.2885 46.4305C46.3849 46.4532 46.4784 46.4645 46.569 46.4645C46.824 46.4645 47.028 46.3653 47.181 46.167C47.3397 45.963 47.4587 45.6513 47.538 45.232C47.6174 44.807 47.6684 44.263 47.691 43.6L47.776 41.05H51.8135V47H51.193V41.424L51.3545 41.594H48.1755L48.3285 41.4155L48.252 43.583C48.2294 44.178 48.1869 44.6937 48.1245 45.13C48.0622 45.5607 47.9715 45.9205 47.8525 46.2095C47.7335 46.4928 47.5805 46.7053 47.3935 46.847C47.2065 46.983 46.9799 47.051 46.7135 47.051ZM57.4164 47V45.028L57.5864 45.198H55.6399C55.1639 45.198 54.7559 45.1158 54.4159 44.9515C54.0815 44.7872 53.8237 44.5548 53.6424 44.2545C53.4667 43.9485 53.3789 43.583 53.3789 43.158C53.3789 42.7047 53.4752 42.3222 53.6679 42.0105C53.8605 41.6932 54.1325 41.4552 54.4839 41.2965C54.8409 41.1322 55.2545 41.05 55.7249 41.05H58.0369V47H57.4164ZM53.3789 47L54.8409 44.909H55.4869L54.0504 47H53.3789ZM57.4164 44.8495V41.4155L57.5864 41.594H55.7504C55.195 41.594 54.7644 41.7272 54.4584 41.9935C54.158 42.2542 54.0079 42.6367 54.0079 43.141C54.0079 43.6283 54.1495 44.0052 54.4329 44.2715C54.7162 44.5322 55.1355 44.6625 55.6909 44.6625H57.5864L57.4164 44.8495ZM68.9266 47L66.9461 44.0335L67.4816 43.7275L69.6576 47H68.9266ZM65.6796 44.2715V43.719H67.3796V44.2715H65.6796ZM67.5071 44.093L66.9291 43.991L68.8246 41.05H69.5046L67.5071 44.093ZM62.2031 47H61.4721L63.6481 43.7275L64.1836 44.0335L62.2031 47ZM65.8751 47H65.2631V41.05H65.8751V47ZM65.4501 44.2715H63.7501V43.719H65.4501V44.2715ZM63.6226 44.093L61.6251 41.05H62.3051L64.1921 43.991L63.6226 44.093ZM70.6549 47V41.05H71.2754V45.98L75.0834 41.05H75.6529V47H75.0324V42.0785L71.2244 47H70.6549ZM77.6607 47V41.05H80.1342C80.7632 41.05 81.2562 41.1803 81.6132 41.441C81.9759 41.696 82.1572 42.0728 82.1572 42.5715C82.1572 43.0645 81.9844 43.4385 81.6387 43.6935C81.293 43.9428 80.8397 44.0675 80.2787 44.0675L80.4232 43.855C81.0862 43.855 81.5905 43.9853 81.9362 44.246C82.2819 44.5067 82.4547 44.8892 82.4547 45.3935C82.4547 45.9035 82.2734 46.3002 81.9107 46.5835C81.5537 46.8612 81.0154 47 80.2957 47H77.6607ZM78.2812 46.4985H80.2957C80.8 46.4985 81.1825 46.405 81.4432 46.218C81.7039 46.031 81.8342 45.742 81.8342 45.351C81.8342 44.9657 81.7039 44.6823 81.4432 44.501C81.1825 44.3197 80.8 44.229 80.2957 44.229H78.2812V46.4985ZM78.2812 43.7445H80.1002C80.5592 43.7445 80.9105 43.6538 81.1542 43.4725C81.4035 43.2855 81.5282 43.0107 81.5282 42.648C81.5282 42.2853 81.4035 42.0133 81.1542 41.832C80.9105 41.645 80.5592 41.5515 80.1002 41.5515H78.2812V43.7445ZM86.6369 47.051C86.1892 47.051 85.7727 46.9773 85.3874 46.83C85.0077 46.677 84.6762 46.4645 84.3929 46.1925C84.1152 45.9148 83.8971 45.5947 83.7384 45.232C83.5854 44.8637 83.5089 44.4613 83.5089 44.025C83.5089 43.5887 83.5854 43.1892 83.7384 42.8265C83.8971 42.4582 84.1152 42.138 84.3929 41.866C84.6762 41.5883 85.0077 41.3758 85.3874 41.2285C85.7671 41.0755 86.1836 40.999 86.6369 40.999C87.0846 40.999 87.4982 41.0755 87.8779 41.2285C88.2576 41.3758 88.5862 41.5855 88.8639 41.8575C89.1472 42.1295 89.3654 42.4497 89.5184 42.818C89.6771 43.1863 89.7564 43.5887 89.7564 44.025C89.7564 44.4613 89.6771 44.8637 89.5184 45.232C89.3654 45.6003 89.1472 45.9205 88.8639 46.1925C88.5862 46.4645 88.2576 46.677 87.8779 46.83C87.4982 46.9773 87.0846 47.051 86.6369 47.051ZM86.6369 46.49C86.9939 46.49 87.3226 46.4305 87.6229 46.3115C87.9289 46.1868 88.1924 46.014 88.4134 45.793C88.6401 45.5663 88.8157 45.3057 88.9404 45.011C89.0651 44.7107 89.1274 44.382 89.1274 44.025C89.1274 43.668 89.0651 43.3422 88.9404 43.0475C88.8157 42.7472 88.6401 42.4865 88.4134 42.2655C88.1924 42.0388 87.9289 41.866 87.6229 41.747C87.3226 41.6223 86.9939 41.56 86.6369 41.56C86.2799 41.56 85.9484 41.6223 85.6424 41.747C85.3364 41.866 85.0701 42.0388 84.8434 42.2655C84.6224 42.4865 84.4467 42.7472 84.3164 43.0475C84.1917 43.3422 84.1294 43.668 84.1294 44.025C84.1294 44.3763 84.1917 44.7022 84.3164 45.0025C84.4467 45.3028 84.6224 45.5663 84.8434 45.793C85.0701 46.014 85.3364 46.1868 85.6424 46.3115C85.9484 46.4305 86.2799 46.49 86.6369 46.49ZM92.3559 47V41.424L92.5259 41.594H90.2649V41.05H95.0674V41.594H92.8149L92.9764 41.424V47H92.3559ZM100.523 41.05H101.144V47H100.523V41.05ZM96.8005 47H96.1715V41.05H96.8005V47ZM100.583 44.2545H96.7325V43.702H100.583V44.2545ZM105.643 43.175C106.346 43.175 106.881 43.3337 107.249 43.651C107.623 43.9627 107.81 44.4273 107.81 45.045C107.81 45.6853 107.612 46.1727 107.215 46.507C106.819 46.8357 106.252 47 105.515 47H103.152V41.05H103.773V43.175H105.643ZM105.498 46.4985C106.048 46.4985 106.465 46.3767 106.748 46.133C107.037 45.8893 107.181 45.5323 107.181 45.062C107.181 44.5917 107.04 44.246 106.756 44.025C106.473 43.7983 106.054 43.685 105.498 43.685H103.773V46.4985H105.498ZM108.839 47V41.05H109.459V47H108.839ZM110.798 41.05H111.521L113.212 43.4045L114.895 41.05H115.635L113.603 43.906L115.796 47H115.057L113.212 44.4415L111.368 47H110.645L112.83 43.9315L110.798 41.05Z" fill="black"/>
<path d="M3.48141 73V54.1H17.3054V55.801H5.45241V61.984H11.6354C13.8674 61.984 15.5594 62.443 16.7114 63.361C17.8814 64.261 18.4664 65.593 18.4664 67.357C18.4664 69.175 17.8364 70.57 16.5764 71.542C15.3344 72.514 13.5434 73 11.2034 73H3.48141ZM5.45241 71.407H11.1764C12.9224 71.407 14.2364 71.074 15.1184 70.408C16.0184 69.724 16.4684 68.734 16.4684 67.438C16.4684 64.864 14.7044 63.577 11.1764 63.577H5.45241V71.407ZM20.2912 73L28.9312 54.1H30.9022L39.5422 73H37.4362L29.4982 55.261H30.3082L22.3702 73H20.2912ZM23.6932 67.951L24.2872 66.331H35.2762L35.8702 67.951H23.6932ZM43.164 73V54.1H55.179V55.828H44.595L45.108 55.315L45.135 73H43.164ZM58.6152 73V54.1H60.5862V69.76L72.6822 54.1H74.4912V73H72.5202V57.367L60.4242 73H58.6152ZM80.8691 73V54.1H87.9431C89.5451 54.1 90.9221 54.361 92.0741 54.883C93.2261 55.387 94.1081 56.125 94.7201 57.097C95.3501 58.051 95.6651 59.212 95.6651 60.58C95.6651 61.912 95.3501 63.064 94.7201 64.036C94.1081 64.99 93.2261 65.728 92.0741 66.25C90.9221 66.772 89.5451 67.033 87.9431 67.033H81.9761L82.8671 66.088V73H80.8691ZM82.8671 66.25L81.9761 65.278H87.8891C89.7791 65.278 91.2101 64.873 92.1821 64.063C93.1721 63.235 93.6671 62.074 93.6671 60.58C93.6671 59.068 93.1721 57.898 92.1821 57.07C91.2101 56.242 89.7791 55.828 87.8891 55.828H81.9761L82.8671 54.883V66.25ZM96.0178 73L104.658 54.1H106.629L115.269 73H113.163L105.225 55.261H106.035L98.0968 73H96.0178ZM99.4198 67.951L100.014 66.331H111.003L111.597 67.951H99.4198Z" fill="black"/>
<path d="M19.6934 0.44479C19.7781 1.19957 19.9244 1.68479 20.271 2.43187C20.5868 3.13274 20.995 3.62566 21.3262 3.73348C21.434 3.76429 21.4648 3.83361 21.4417 4.00305C21.4032 4.24181 21.511 4.29572 21.6804 4.12628C21.8345 3.97994 21.6342 4.35733 21.3801 4.68851C21.0797 5.07361 20.6946 6.09795 20.6176 6.72951C20.5021 7.58441 20.556 8.90913 20.71 9.27112C21.0258 9.97969 21.0335 11.5971 20.7254 11.8204C20.6638 11.8666 20.6099 11.9668 20.6099 12.0361C20.6099 12.1131 20.5637 12.1593 20.5175 12.1362C20.4636 12.1208 20.425 12.0438 20.4405 11.9668C20.4713 11.805 20.3326 11.8743 20.2248 12.0823C20.1632 12.2055 20.1632 12.2209 20.2633 12.1901C20.3326 12.1593 20.3788 12.1901 20.3788 12.2594C20.3788 12.4135 20.2479 12.4982 20.1786 12.3827C20.0862 12.2286 19.4546 13.0604 19.4546 13.3454C19.4546 13.6997 20.3249 14.6239 21.3416 15.3479C21.9654 15.8023 23.2362 16.4724 23.4519 16.4724C23.5366 16.4724 23.7754 16.5263 23.9756 16.5956C24.3222 16.7111 24.3992 16.7111 25.0385 16.5956C25.4236 16.5263 25.9088 16.4184 26.1167 16.3568C27.9113 15.8331 28.1346 15.7792 28.5967 15.7792C29.1513 15.7792 29.5286 15.9332 29.8829 16.3106L30.1063 16.5417L29.9831 16.9884C29.9137 17.2348 29.8444 17.6045 29.8213 17.8202C29.7828 18.1822 29.7905 18.1745 29.8983 17.7047C30.3296 15.8177 30.8996 14.3466 31.4079 13.7767C31.7853 13.3531 31.7776 13.3993 31.146 14.932C30.4683 16.5494 30.268 17.1655 30.0832 18.1437C29.9908 18.5981 29.8521 19.2373 29.7751 19.5531C29.6365 20.123 29.6288 20.123 29.6211 19.7842L29.6057 19.4376L29.5055 19.8997C29.4516 20.1538 29.39 20.5312 29.3669 20.7469L29.3284 21.132L29.4362 20.7931C29.5672 20.3695 29.7212 20.1847 29.6596 20.5158C29.6365 20.6468 29.5672 21.1628 29.5055 21.6711C29.4439 22.1794 29.3361 22.9727 29.2745 23.4425C29.2052 23.9046 29.1358 24.4823 29.105 24.7133C29.0819 24.9444 29.0126 25.214 28.9587 25.3064C28.8971 25.3988 28.8509 25.5374 28.8509 25.6145C28.8432 25.9533 27.9267 26.6465 27.9267 26.3153C27.9267 26.2691 28.0884 26.0843 28.2809 25.9071C28.5736 25.6376 28.6275 25.5451 28.6044 25.3603L28.5736 25.1369L28.4504 25.4065C28.304 25.73 27.5647 26.4386 27.2104 26.6003C26.9639 26.7081 26.8561 26.7774 26.4402 27.0547C26.3247 27.1317 25.9935 27.3089 25.7085 27.4475C25.4236 27.5861 24.8998 27.8942 24.5378 28.133C24.1836 28.3717 23.8678 28.5643 23.837 28.5643C23.8062 28.5643 23.4442 28.7568 23.0283 28.9956C22.6047 29.2343 21.4032 29.8582 20.3403 30.3819C19.2852 30.9056 18.1068 31.5064 17.7217 31.722C17.3443 31.93 16.9438 32.1456 16.836 32.1918C16.7282 32.2381 16.5433 32.3536 16.4124 32.446C16.2891 32.5461 16.1351 32.6386 16.0889 32.654C15.8347 32.731 14.9567 33.7168 14.7719 34.1096C14.6641 34.3407 14.5562 34.5486 14.5254 34.5717C14.4099 34.6487 14.1865 35.1571 14.1326 35.4574C14.1018 35.6269 14.0479 35.8656 14.0171 35.9889C13.9324 36.3277 14.1711 36.7051 14.5408 36.8207C14.8566 36.9131 15.3572 36.813 15.6114 36.5973C15.673 36.5434 15.7654 36.4972 15.8116 36.4972C16.0119 36.4972 16.6819 36.089 17.1826 35.6654C18.3301 34.7027 19.9398 34.125 23.7908 33.3009C24.4762 33.1546 25.4698 32.9158 26.0012 32.7618C26.5326 32.6154 27.6032 32.3305 28.3888 32.1379C32.3321 31.1675 32.8481 31.0058 33.6645 30.4743C34.0034 30.2587 34.6273 29.7273 35.0509 29.3036C35.8134 28.5335 37.631 26.5233 38.0315 25.9996C38.3011 25.653 38.9942 25.4065 39.6951 25.4065C40.1341 25.4065 40.2804 25.4527 40.9967 25.7993C41.4357 26.015 41.9132 26.2845 42.0442 26.4078C42.1828 26.5233 42.5679 26.8082 42.9068 27.0393C44.709 28.2485 45.1865 28.7183 47.8899 31.9146C48.1055 32.1687 48.3751 32.5153 48.4829 32.6848C48.5907 32.8542 48.9373 33.324 49.2608 33.7245C50.4238 35.1956 51.0938 36.3663 51.0399 36.8515C51.0322 36.9439 50.7473 37.0979 50.3622 37.2289C49.8692 37.3906 49.2762 38.0838 49.3301 38.4381C49.3301 38.4766 49.2993 38.4997 49.2608 38.4997C49.1607 38.4997 49.1607 38.7846 49.2608 38.8463C49.307 38.8694 49.3378 38.9464 49.3378 39.008C49.3378 39.2159 49.6536 39.8167 49.7845 39.8629C49.8538 39.886 49.9694 39.9553 50.031 40.0092C50.2004 40.1556 51.6022 40.3019 51.7947 40.2018C51.8794 40.1556 52.2183 40.1171 52.5495 40.1171C52.9269 40.1094 53.2196 40.0708 53.3428 40.0015C53.4506 39.9399 53.5969 39.8937 53.6663 39.886C53.8434 39.886 54.6521 39.3315 54.6521 39.2159C54.6521 39.1697 54.6213 39.1004 54.5751 39.0773C54.5366 39.0542 54.4981 38.9772 54.4981 38.9079C54.4981 38.8077 54.5212 38.8077 54.6136 38.8848C54.7984 39.0388 54.9371 38.8694 54.8215 38.6383C54.7753 38.5382 54.7214 38.3071 54.706 38.1146C54.6829 37.8296 54.6752 37.8527 54.6675 38.2455C54.6521 38.8308 54.4981 38.9002 54.4981 38.3225C54.4981 37.5908 53.9897 36.3894 52.2568 33.0313C51.4712 31.5064 50.8628 30.2048 50.547 29.3653C50.4007 28.9802 50.2081 28.5258 50.1157 28.3486C50.031 28.1792 49.7691 27.5784 49.5381 27.0085C49.307 26.4463 49.0066 25.73 48.8757 25.4142C48.637 24.8366 48.5753 24.4053 48.7371 24.4053C48.7833 24.4053 48.7987 24.3822 48.7756 24.3591C48.7448 24.3282 48.6678 24.3514 48.5907 24.413C48.4752 24.5054 48.4675 24.5054 48.5137 24.3822C48.5599 24.2589 48.4367 24.2512 46.6961 24.2435C45.6717 24.2435 44.6782 24.2127 44.4857 24.1819C44.1391 24.128 44.1468 24.128 44.7552 24.0587C45.5408 23.9663 49.3455 23.9586 50.4392 24.0433C51.2325 24.1126 51.5714 24.2435 50.9783 24.2589L50.6856 24.2666L51.0322 24.3437C51.4943 24.4361 53.2119 24.3745 53.2504 24.2589C53.2658 24.2127 53.312 24.1896 53.3505 24.2204C53.389 24.2435 53.4198 24.2281 53.4198 24.1896C53.4198 24.1434 53.7587 24.0895 54.1746 24.0587C54.5828 24.0279 55.1296 23.9586 55.3838 23.9046C55.6379 23.8507 56.0384 23.7814 56.2695 23.7506C56.824 23.689 57.4325 23.5427 58.8881 23.1191C61.5992 22.3412 62.4233 22.1563 63.3167 22.1255L64.1639 22.0947L63.5477 22.2025C63.2089 22.2642 62.7622 22.3797 62.5619 22.4721C62.0305 22.7032 60.182 23.2885 59.4735 23.4502C59.1423 23.5273 58.9035 23.6043 58.9497 23.6197C58.9882 23.6274 59.2578 23.5889 59.5428 23.5196C60.3361 23.3347 60.313 23.327 60.3361 23.8969C60.3592 24.7519 61.2911 26.97 61.9612 27.7556C62.1152 27.9327 62.4387 28.3255 62.6851 28.6336C62.9316 28.934 63.6941 29.6964 64.3795 30.3203C66.1048 31.8992 66.4359 32.2458 66.4359 32.4691C66.4359 32.5769 66.4205 32.5846 66.3666 32.5076C66.3281 32.446 66.2896 32.6 66.2588 32.9235C66.228 33.2085 66.1741 33.4627 66.1433 33.4858C66.1048 33.5089 66.0509 33.609 66.02 33.6937C65.943 33.9479 65.2113 34.6949 64.7723 34.9722C64.0407 35.442 62.7776 36.0197 62.0459 36.2276C60.9291 36.5357 59.9048 36.7282 59.3733 36.7282C58.9497 36.7282 58.8727 36.7513 58.6956 36.9362C58.3721 37.2905 58.2412 37.6448 58.2412 38.207C58.2335 38.7076 58.2412 38.7307 58.5338 39.0311C58.7033 39.2005 58.942 39.3623 59.073 39.3931C59.2039 39.4162 59.3579 39.4778 59.4041 39.5163C59.5197 39.6087 60.467 39.7397 61.1987 39.7705C61.6916 39.7936 62.4079 39.6703 62.7005 39.524C62.7853 39.4778 63.101 39.3469 63.3937 39.2313C65.7428 38.2994 65.9276 38.2224 67.1291 37.614C68.3152 37.0209 68.6695 36.8284 68.8466 36.6666C68.9853 36.5434 69.0854 36.4818 69.5783 36.2122C70.6104 35.6423 71.6424 34.6872 71.8503 34.1096C71.989 33.7322 72.0352 32.6463 71.912 32.6463C71.8735 32.6463 71.8195 32.4999 71.7887 32.3151C71.7579 32.1379 71.6809 31.9377 71.627 31.8761C71.3882 31.6296 70.8183 30.6669 70.7259 30.3742C70.672 30.1894 70.6335 29.6117 70.6335 28.9109C70.6412 27.7633 70.6797 27.4398 71.188 24.5824C71.3035 23.92 71.3035 23.8584 71.188 23.7275C71.0417 23.5658 71.0108 23.327 71.1418 23.327C71.2727 23.327 71.5192 23.4733 72.3279 24.0587C73.4215 24.8366 74.546 25.5991 74.9696 25.8455C75.7552 26.2922 75.2392 25.9225 72.0198 23.7275C71.473 23.3578 70.541 22.7802 69.9634 22.449C69.0392 21.9253 68.7465 21.7096 68.9545 21.7096C69.2086 21.7096 70.3639 22.1948 71.2496 22.6801C73.1212 23.6967 73.899 24.1896 74.9773 25.0445C75.5549 25.5066 76.1865 26.0073 76.3867 26.1613C76.587 26.3153 76.7487 26.4925 76.7564 26.5464C76.7564 26.5926 76.7795 26.6311 76.8181 26.6234C76.8489 26.608 77.2031 26.7697 77.6036 26.9623C78.5972 27.4552 81.3005 28.5566 82.3403 28.8955C83.9192 29.4115 84.2657 29.4962 84.9974 29.5732C85.3979 29.6194 85.8523 29.6733 85.9987 29.6887C86.145 29.7118 86.4608 29.7504 86.6918 29.7812C86.9537 29.8197 87.1077 29.8736 87.1 29.9275C87.0846 29.9814 87.1231 30.0045 87.1771 29.9891C87.3465 29.9275 88.0397 30.0738 88.0166 30.1663C88.0089 30.2202 88.0859 30.2587 88.1937 30.2587C88.3015 30.2587 88.5403 30.3357 88.7174 30.4204C89.3644 30.7516 89.5261 30.921 89.9343 31.7836C90.4118 32.7926 90.7045 33.3625 90.7738 33.4164C90.82 33.4472 91.2359 34.0634 91.5055 34.487C91.5517 34.5563 91.7751 34.8336 92.0061 35.1108C92.4836 35.6731 93.0074 36.4279 93.0074 36.5511C93.0074 36.6512 93.585 37.1904 93.9855 37.4522C94.4245 37.7449 95.5105 38.0067 95.8185 37.8912C95.9495 37.845 96.2421 37.7757 96.4655 37.7295C96.9507 37.6371 97.3204 37.3829 97.59 36.9516C97.8518 36.5434 97.8364 36.2584 97.5129 35.7732C97.305 35.4651 97.1356 35.3188 96.7428 35.1108C96.4655 34.9645 96.1805 34.7874 96.1112 34.7104C96.0419 34.6333 95.9418 34.5717 95.8879 34.5717C95.7261 34.5717 94.7018 33.5705 94.7018 33.4087C94.7018 33.3317 94.671 33.247 94.6247 33.2239C94.5862 33.2008 94.386 32.8465 94.178 32.4306C93.8007 31.6912 93.2692 30.7131 93.0228 30.3203C92.8379 30.0353 92.3219 29.2574 92.1525 29.011C92.0677 28.8955 92.0061 28.7876 92.0061 28.7645C92.0061 28.6875 91.5132 27.9789 91.259 27.694C91.1204 27.5399 91.0049 27.3628 91.0049 27.3089C91.0049 27.1009 89.8881 26.0458 89.349 25.7531C89.0563 25.5837 88.6404 25.3449 88.4248 25.214C88.2168 25.0753 87.824 24.852 87.5544 24.7133C87.1 24.4746 85.7676 23.25 85.7676 23.0728C85.7676 23.0343 85.5982 22.811 85.3979 22.5722C85.19 22.3335 84.9435 22.01 84.8434 21.8637C84.5661 21.4555 83.5033 20.1538 83.2645 19.9382C83.149 19.8304 82.9333 19.5685 82.7793 19.3605C82.4096 18.8599 81.986 18.3978 81.8936 18.3978C81.7626 18.3978 80.3301 17.0038 78.7204 15.3171C78.2583 14.8242 77.7654 14.3389 77.6267 14.2388C77.3418 14.0155 77.3033 13.8537 77.5343 13.8537C77.75 13.8537 77.9425 13.9615 78.4894 14.3929C79.1363 14.8935 80.9308 16.095 81.4931 16.3953C81.7472 16.534 82.0091 16.688 82.0707 16.7342C82.1323 16.7881 82.4404 16.9807 82.7562 17.1732C83.9038 17.8664 84.1194 18.0127 84.5507 18.3747C84.7972 18.5827 85.2362 18.9061 85.5366 19.0987C85.8369 19.2835 86.4454 19.6686 86.8767 19.9536C87.7085 20.4927 87.978 20.6391 89.5569 21.3938C91.983 22.5491 93.1999 22.9958 94.7018 23.25C95.2332 23.3424 95.8339 23.4502 96.0419 23.4887C96.8814 23.6351 99.4692 23.5581 99.9005 23.3732C101.133 22.8418 102.019 22.2179 102.304 21.6788C102.473 21.3553 102.396 20.8239 102.142 20.562L101.942 20.3618L100.07 20.3541C98.3602 20.3387 98.0906 20.3156 96.8275 20.0999C95.2948 19.8304 94.3013 19.5916 93.3 19.2527C92.6531 19.0294 91.1974 18.4286 91.0434 18.3131C91.0049 18.2823 90.4657 18.005 89.8496 17.6969C88.3554 16.9499 85.6213 15.2478 84.3043 14.2465C84.1964 14.1618 83.7112 13.8383 83.2183 13.5225C82.4481 13.0219 81.2851 12.1824 80.3763 11.4816C79.7063 10.9655 79.0516 10.565 78.3045 10.2107C77.8578 10.0028 77.1338 9.66391 76.6948 9.45596C75.8553 9.05547 74.4536 8.53944 74.2071 8.53944C74.0762 8.53944 73.4831 8.29298 72.2508 7.73075C71.5115 7.39957 70.0173 7.1146 67.9455 6.91435C66.151 6.74491 62.6004 6.96056 59.0037 7.45348C56.8471 7.75385 54.1823 8.14665 54.036 8.19286C53.9743 8.20826 53.312 8.33149 52.5726 8.47013C49.2762 9.05547 49.307 9.04776 49.3763 9.15559C49.4996 9.35584 47.6742 9.59459 46.2571 9.57149C45.8566 9.56379 45.4869 9.58689 45.433 9.6331C45.3791 9.67932 45.3252 9.67161 45.2943 9.6177C45.2712 9.57919 45.148 9.54068 45.0325 9.54068C44.555 9.54068 42.8683 8.99385 42.8683 8.83981C42.8683 8.8013 42.9453 8.7705 43.0454 8.76279C43.754 8.74739 41.1507 8.30839 40.3112 8.30839C39.8722 8.30839 39.5796 8.25447 39.0866 8.08503C38.7324 7.9618 37.9545 7.75385 37.3614 7.61522C34.5965 6.99137 33.911 6.76031 32.1319 5.85149C31.3694 5.4664 30.6993 5.15063 30.6377 5.15063C30.5068 5.15063 29.7135 4.6269 29.313 4.28032C29.1667 4.14938 28.6275 3.84901 28.1192 3.60255C27.3336 3.23286 27.118 3.08653 26.6944 2.65522C26.0243 1.96976 25.231 1.50765 24.2837 1.26119C23.8678 1.15336 23.4288 1.06864 23.3055 1.06864C22.674 1.06864 20.6099 0.483299 20.0708 0.152119C19.6626 -0.0943375 19.6318 -0.0712318 19.6934 0.44479ZM22.6278 8.50093C22.959 9.58689 23.0129 9.69472 23.2516 9.69472C23.4134 9.69472 24.5841 8.56255 24.507 8.47783C24.4762 8.45472 24.353 8.54714 24.2298 8.67808C23.9448 8.99385 23.7445 8.98615 23.5058 8.67037C23.3363 8.45472 23.1592 7.92329 23.1515 7.63832C23.1438 7.29944 24.7304 8.00031 25.0231 8.47013C25.1463 8.67037 25.0308 8.93994 24.6611 9.32503C24.1527 9.85646 23.5905 10.1568 23.0976 10.1568C22.6509 10.1568 22.5277 10.0413 22.2735 9.40205C22.0424 8.7936 22.0116 7.39957 22.2427 7.47659C22.2889 7.49199 22.4583 7.9541 22.6278 8.50093ZM39.2176 8.3777C39.1945 8.40851 38.9557 8.46243 38.6939 8.49323C37.9006 8.58565 36.3448 8.98615 35.5361 9.30963C34.8275 9.59459 34.2037 9.95658 33.5259 10.488C32.9098 10.9655 33.1793 10.3956 33.911 9.67932C34.8044 8.80901 36.3448 8.3469 38.4628 8.31609C38.9018 8.31609 39.2407 8.3392 39.2176 8.3777ZM43.6076 24.3128C43.5845 24.3437 43.2996 24.3899 42.9684 24.3976C42.6372 24.413 42.2444 24.4361 42.0981 24.4438C41.9517 24.4515 41.6591 24.4746 41.4434 24.4823L41.0583 24.5054L41.4049 24.5593C41.7515 24.6132 41.7515 24.6132 41.2509 24.6363C40.9736 24.6517 40.5808 24.6594 40.3652 24.6594C40.1572 24.6594 40.0263 24.6748 40.0802 24.6902C40.2265 24.7441 40.188 24.8674 40.0186 24.8674C39.8414 24.8674 38.7632 25.2217 38.4474 25.3834C38.3242 25.445 38.1316 25.6068 38.0238 25.7454C37.916 25.8763 37.4924 26.3307 37.0919 26.7543C36.6837 27.1779 36.183 27.7479 35.9751 28.0251C35.5669 28.5566 34.8506 29.3345 34.7582 29.3345C34.6581 29.3345 34.712 29.1419 34.866 28.9494C34.9508 28.8415 35.3358 28.287 35.7209 27.7171C36.391 26.7158 36.9609 25.9764 37.2844 25.6992C37.6079 25.4142 38.5475 24.9521 39.1714 24.7673C39.7259 24.5978 40.5654 24.4207 41.3279 24.3051C41.7053 24.2435 43.6461 24.2512 43.6076 24.3128ZM44.27 24.3437C44.2007 24.413 44.1545 24.413 44.0852 24.3437C44.0158 24.2743 44.0312 24.2512 44.1776 24.2512C44.3239 24.2512 44.3393 24.2743 44.27 24.3437ZM54.3517 39.37C54.2208 39.5009 54.1669 39.3777 54.2824 39.2005C54.3671 39.0619 54.3902 39.0542 54.4056 39.162C54.421 39.2313 54.3979 39.3238 54.3517 39.37Z" fill="black"/>
<path d="M19.108 4.57298C18.8154 4.62689 18.2839 4.6808 17.9373 4.6808C17.5831 4.6885 17.2981 4.71931 17.2981 4.75012C17.2981 4.85794 18.1453 6.09024 18.4072 6.36751C18.7306 6.72179 19.5239 7.28403 19.7858 7.34565C19.9937 7.39956 19.9937 7.40726 20.0014 8.03111C20.0091 9.13248 20.1247 9.03235 20.1632 7.88478C20.1863 7.02217 20.2248 6.69869 20.3711 6.26738C20.6484 5.42788 20.6946 5.32776 20.9642 4.88105L21.2183 4.45745L20.4328 4.46515C20.0014 4.46515 19.4084 4.51906 19.108 4.57298Z" fill="black"/>
<path d="M44.0235 8.92453C44.1776 9.02466 44.3547 9.02466 44.2931 8.92453C44.27 8.87832 44.1699 8.84751 44.0774 8.84751C43.9388 8.84751 43.9311 8.86292 44.0235 8.92453Z" fill="black"/>
<path d="M20.1863 9.23259C20.2171 9.37893 20.2941 9.6562 20.3558 9.84874C20.4174 10.0413 20.4713 10.5188 20.479 10.9424C20.4867 11.3583 20.5175 11.6972 20.556 11.6972C20.6792 11.6972 20.6099 10.3802 20.4482 9.79483C20.271 9.13247 20.1093 8.78589 20.1863 9.23259Z" fill="black"/>
<path d="M29.7135 18.4748C29.7135 18.5827 29.7289 18.6212 29.752 18.5673C29.7674 18.521 29.7674 18.4286 29.752 18.3747C29.7289 18.3285 29.7135 18.367 29.7135 18.4748Z" fill="black"/>
<path d="M29.6365 18.9755C29.6365 19.0987 29.6519 19.1449 29.675 19.0679C29.6904 18.9986 29.6904 18.8907 29.675 18.8368C29.6519 18.7906 29.6365 18.8445 29.6365 18.9755Z" fill="black"/>
<path d="M29.2437 21.3707C29.2437 21.4554 29.2668 21.4786 29.2899 21.4169C29.313 21.363 29.3053 21.2937 29.2822 21.2706C29.2591 21.2398 29.236 21.286 29.2437 21.3707Z" fill="black"/>
<path d="M29.1743 21.7096C29.1743 21.8174 29.1897 21.856 29.2128 21.802C29.2282 21.7558 29.2282 21.6634 29.2128 21.6095C29.1897 21.5633 29.1743 21.6018 29.1743 21.7096Z" fill="black"/>
<path d="M28.9895 22.6723C28.9587 22.8418 28.9355 23.1191 28.9355 23.2885L28.9432 23.5966L29.0126 23.3424C29.0588 23.1961 29.0819 22.9188 29.0665 22.7263L29.0434 22.3643L28.9895 22.6723Z" fill="black"/>
<path d="M58.6416 23.689C58.6955 23.7121 58.7649 23.7044 58.788 23.6813C58.8188 23.6582 58.7726 23.6351 58.6878 23.6428C58.6031 23.6428 58.58 23.6659 58.6416 23.689Z" fill="black"/>
<path d="M58.1797 23.766C58.2259 23.7814 58.3183 23.7814 58.3723 23.766C58.4185 23.7429 58.38 23.7275 58.2721 23.7275C58.1643 23.7275 58.1258 23.7429 58.1797 23.766Z" fill="black"/>
<path d="M57.7945 23.843C57.8407 23.8584 57.9331 23.8584 57.987 23.843C58.0332 23.8199 57.9947 23.8045 57.8869 23.8045C57.7791 23.8045 57.7405 23.8199 57.7945 23.843Z" fill="black"/>
<path d="M28.7431 24.2127C28.72 24.282 28.7046 24.4823 28.7046 24.6594C28.72 24.9675 28.72 24.9598 28.7739 24.5593C28.8278 24.1049 28.8201 24.0125 28.7431 24.2127Z" fill="black"/>
<path d="M48.9142 24.3128C48.8372 24.3899 48.8757 24.6825 48.9912 24.8366C49.0528 24.9136 49.1068 25.0291 49.1068 25.0907C49.1068 25.2756 49.6151 26.4925 50.185 27.6786C50.7319 28.8184 51.9564 31.6835 51.9564 31.8299C51.9564 31.8684 52.0951 32.1841 52.2568 32.523C52.6727 33.3856 52.9577 34.0403 52.9577 34.1327C52.9577 34.1712 53.0886 34.4023 53.2504 34.641C53.4121 34.8798 53.6663 35.2726 53.8126 35.5268C53.9589 35.7732 54.1669 36.1352 54.2824 36.3354C54.3979 36.528 54.552 36.8746 54.629 37.0979C54.6983 37.3136 54.783 37.4984 54.8215 37.4984C54.8986 37.4984 54.9063 37.2366 54.8292 37.1595C54.7984 37.1364 54.7676 37.0594 54.7599 36.9978C54.7368 36.8207 54.4133 36.1814 54.2285 35.9195C54.0822 35.727 53.9127 35.4266 53.2658 34.2405C53.2196 34.1712 53.1502 34.048 53.1117 33.971C53.0655 33.9017 53.0116 33.7861 52.9885 33.7245C52.9654 33.6629 52.7266 33.1238 52.4648 32.5307C52.1952 31.9377 51.864 31.1752 51.7331 30.8363C51.2094 29.5578 50.909 28.8723 50.262 27.486C49.8924 26.7004 49.5304 25.884 49.4533 25.6761C49.384 25.4604 49.2454 25.1061 49.1607 24.8828C48.9681 24.3899 49.0066 24.3437 49.5997 24.3822C49.8307 24.3976 50.1003 24.3745 50.2004 24.3283C50.3314 24.2743 50.1927 24.2589 49.669 24.2666C49.2762 24.2666 48.9373 24.2897 48.9142 24.3128Z" fill="black"/>
<path d="M75.6012 26.2075C75.6012 26.2306 75.8014 26.3538 76.0479 26.4925C76.2867 26.6234 76.8797 26.9623 77.3572 27.2318C78.5664 27.9173 80.9463 29.0572 81.9167 29.4192C82.3634 29.5809 83.0412 29.7812 83.4186 29.8736C83.8037 29.9583 84.2504 30.0584 84.4198 30.1046C84.7279 30.1817 87.2926 30.2125 87.2156 30.1431C87.1925 30.12 86.5224 30.0661 85.7214 30.0276C84.7818 29.9814 84.0501 29.9044 83.6496 29.8043C82.1324 29.4346 79.8911 28.4641 77.2186 27.0085C76.9413 26.8622 76.5331 26.6465 76.3098 26.5233C76.0864 26.4077 75.8862 26.2845 75.8631 26.246C75.8246 26.1767 75.6012 26.1459 75.6012 26.2075Z" fill="black"/>
<path d="M87.6623 30.251C87.5236 30.3049 87.5236 30.3126 87.6469 30.3588C87.8702 30.4512 88.0011 30.4204 87.9549 30.2972C87.901 30.1663 87.8779 30.1663 87.6623 30.251Z" fill="black"/>
<path d="M88.1553 30.5668C88.1553 30.6053 88.2092 30.6438 88.2708 30.6438C88.3324 30.6438 88.525 30.767 88.6944 30.921C88.8638 31.0751 89.0256 31.1829 89.0487 31.1598C89.1103 31.1059 88.7098 30.7439 88.525 30.6823C88.4479 30.6515 88.3863 30.5976 88.3863 30.5591C88.3863 30.5206 88.3324 30.4897 88.2708 30.4897C88.2092 30.4897 88.1553 30.5206 88.1553 30.5668Z" fill="black"/>
<path d="M89.4646 31.568C89.4646 31.6065 89.5031 31.645 89.5416 31.645C89.5878 31.645 89.6186 31.6065 89.6186 31.568C89.6186 31.5218 89.5878 31.491 89.5416 31.491C89.5031 31.491 89.4646 31.5218 89.4646 31.568Z" fill="black"/>
<path d="M89.6956 31.7991C89.6956 31.8376 89.7495 31.8761 89.8188 31.8761C89.8804 31.8761 89.9112 31.8376 89.8881 31.7991C89.865 31.7528 89.8111 31.722 89.7649 31.722C89.7264 31.722 89.6956 31.7528 89.6956 31.7991Z" fill="black"/>
<path d="M54.9832 38.1531C54.9832 38.3225 54.9986 38.3841 55.014 38.284C55.0294 38.1916 55.0294 38.053 55.014 37.9759C54.9909 37.9066 54.9755 37.9836 54.9832 38.1531Z" fill="black"/>
</svg>
