<svg width="116" height="80" viewBox="0 0 116 80" fill="none" xmlns="http://www.w3.org/2000/svg">
<path d="M4.01618 47V41.05H9.02268V47H8.40218V41.424L8.56368 41.594H4.47518L4.63668 41.424V47H4.01618ZM11.0303 47V41.05H13.2573C13.7617 41.05 14.1952 41.1322 14.5578 41.2965C14.9205 41.4552 15.1982 41.6875 15.3908 41.9935C15.5892 42.2938 15.6883 42.6593 15.6883 43.09C15.6883 43.5093 15.5892 43.872 15.3908 44.178C15.1982 44.4783 14.9205 44.7107 14.5578 44.875C14.1952 45.0393 13.7617 45.1215 13.2573 45.1215H11.3788L11.6593 44.824V47H11.0303ZM11.6593 44.875L11.3788 44.569H13.2403C13.8353 44.569 14.2858 44.4415 14.5918 44.1865C14.9035 43.9258 15.0593 43.5603 15.0593 43.09C15.0593 42.614 14.9035 42.2457 14.5918 41.985C14.2858 41.7243 13.8353 41.594 13.2403 41.594H11.3788L11.6593 41.2965V44.875ZM16.9737 47V41.05H17.5942V45.98L21.4022 41.05H21.9717V47H21.3512V42.0785L17.5432 47H16.9737ZM23.9796 47V41.05H24.6001V43.6935H26.1386V44.263H24.6001V47H23.9796ZM28.7821 47.051C28.3571 47.051 27.9632 46.9773 27.6006 46.83C27.2436 46.677 26.9291 46.4645 26.6571 46.1925C26.3907 45.9205 26.1839 45.6003 26.0366 45.232C25.8892 44.8637 25.8156 44.4613 25.8156 44.025C25.8156 43.5887 25.8892 43.1863 26.0366 42.818C26.1839 42.4497 26.3907 42.1295 26.6571 41.8575C26.9291 41.5855 27.2436 41.3758 27.6006 41.2285C27.9632 41.0755 28.3571 40.999 28.7821 40.999C29.2071 40.999 29.6009 41.0755 29.9636 41.2285C30.3262 41.3758 30.6407 41.5855 30.9071 41.8575C31.1734 42.1295 31.3802 42.4497 31.5276 42.818C31.6806 43.1863 31.7571 43.5887 31.7571 44.025C31.7571 44.4613 31.6806 44.8637 31.5276 45.232C31.3802 45.6003 31.1734 45.9205 30.9071 46.1925C30.6407 46.4645 30.3262 46.677 29.9636 46.83C29.6009 46.9773 29.2071 47.051 28.7821 47.051ZM28.7821 46.49C29.1164 46.49 29.4252 46.4305 29.7086 46.3115C29.9976 46.1868 30.2469 46.014 30.4566 45.793C30.6662 45.572 30.8306 45.3142 30.9496 45.0195C31.0686 44.7192 31.1281 44.3877 31.1281 44.025C31.1281 43.6623 31.0686 43.3337 30.9496 43.039C30.8306 42.7387 30.6662 42.478 30.4566 42.257C30.2469 42.036 29.9976 41.866 29.7086 41.747C29.4252 41.6223 29.1164 41.56 28.7821 41.56C28.4534 41.56 28.1446 41.6223 27.8556 41.747C27.5722 41.866 27.3257 42.036 27.1161 42.257C26.9064 42.478 26.7421 42.7387 26.6231 43.039C26.5041 43.3337 26.4446 43.6623 26.4446 44.025C26.4446 44.3877 26.5041 44.7192 26.6231 45.0195C26.7421 45.3142 26.9064 45.572 27.1161 45.793C27.3257 46.014 27.5722 46.1868 27.8556 46.3115C28.1446 46.4305 28.4534 46.49 28.7821 46.49ZM34.3583 47V41.424L34.5283 41.594H32.2673V41.05H37.0698V41.594H34.8173L34.9788 41.424V47H34.3583ZM44.351 46.7025V41.594H41.5035L41.4525 43.039C41.4355 43.4867 41.4072 43.9173 41.3675 44.331C41.3335 44.739 41.2768 45.1073 41.1975 45.436C41.1238 45.759 41.0218 46.0225 40.8915 46.2265C40.7668 46.4305 40.6025 46.5495 40.3985 46.5835L39.71 46.456C39.9367 46.4673 40.1237 46.3852 40.271 46.2095C40.424 46.0338 40.5402 45.7873 40.6195 45.47C40.7045 45.1527 40.7668 44.7815 40.8065 44.3565C40.8462 43.9315 40.8745 43.4725 40.8915 42.9795L40.9595 41.05H44.9715V46.7025H44.351ZM39.489 48.3345L39.4975 46.456H45.864V48.3345H45.2775V47H40.084L40.0755 48.3345H39.489ZM46.7135 47.051C46.6342 47.051 46.5577 47.0453 46.484 47.034C46.4104 47.0283 46.3282 47.0142 46.2375 46.9915L46.2885 46.4305C46.3849 46.4532 46.4784 46.4645 46.569 46.4645C46.824 46.4645 47.028 46.3653 47.181 46.167C47.3397 45.963 47.4587 45.6513 47.538 45.232C47.6174 44.807 47.6684 44.263 47.691 43.6L47.776 41.05H51.8135V47H51.193V41.424L51.3545 41.594H48.1755L48.3285 41.4155L48.252 43.583C48.2294 44.178 48.1869 44.6937 48.1245 45.13C48.0622 45.5607 47.9715 45.9205 47.8525 46.2095C47.7335 46.4928 47.5805 46.7053 47.3935 46.847C47.2065 46.983 46.9799 47.051 46.7135 47.051ZM57.4164 47V45.028L57.5864 45.198H55.6399C55.1639 45.198 54.7559 45.1158 54.4159 44.9515C54.0815 44.7872 53.8237 44.5548 53.6424 44.2545C53.4667 43.9485 53.3789 43.583 53.3789 43.158C53.3789 42.7047 53.4752 42.3222 53.6679 42.0105C53.8605 41.6932 54.1325 41.4552 54.4839 41.2965C54.8409 41.1322 55.2545 41.05 55.7249 41.05H58.0369V47H57.4164ZM53.3789 47L54.8409 44.909H55.4869L54.0504 47H53.3789ZM57.4164 44.8495V41.4155L57.5864 41.594H55.7504C55.195 41.594 54.7644 41.7272 54.4584 41.9935C54.158 42.2542 54.0079 42.6367 54.0079 43.141C54.0079 43.6283 54.1495 44.0052 54.4329 44.2715C54.7162 44.5322 55.1355 44.6625 55.6909 44.6625H57.5864L57.4164 44.8495ZM68.9266 47L66.9461 44.0335L67.4816 43.7275L69.6576 47H68.9266ZM65.6796 44.2715V43.719H67.3796V44.2715H65.6796ZM67.5071 44.093L66.9291 43.991L68.8246 41.05H69.5046L67.5071 44.093ZM62.2031 47H61.4721L63.6481 43.7275L64.1836 44.0335L62.2031 47ZM65.8751 47H65.2631V41.05H65.8751V47ZM65.4501 44.2715H63.7501V43.719H65.4501V44.2715ZM63.6226 44.093L61.6251 41.05H62.3051L64.1921 43.991L63.6226 44.093ZM70.6549 47V41.05H71.2754V45.98L75.0834 41.05H75.6529V47H75.0324V42.0785L71.2244 47H70.6549ZM77.6607 47V41.05H80.1342C80.7632 41.05 81.2562 41.1803 81.6132 41.441C81.9759 41.696 82.1572 42.0728 82.1572 42.5715C82.1572 43.0645 81.9844 43.4385 81.6387 43.6935C81.293 43.9428 80.8397 44.0675 80.2787 44.0675L80.4232 43.855C81.0862 43.855 81.5905 43.9853 81.9362 44.246C82.2819 44.5067 82.4547 44.8892 82.4547 45.3935C82.4547 45.9035 82.2734 46.3002 81.9107 46.5835C81.5537 46.8612 81.0154 47 80.2957 47H77.6607ZM78.2812 46.4985H80.2957C80.8 46.4985 81.1825 46.405 81.4432 46.218C81.7039 46.031 81.8342 45.742 81.8342 45.351C81.8342 44.9657 81.7039 44.6823 81.4432 44.501C81.1825 44.3197 80.8 44.229 80.2957 44.229H78.2812V46.4985ZM78.2812 43.7445H80.1002C80.5592 43.7445 80.9105 43.6538 81.1542 43.4725C81.4035 43.2855 81.5282 43.0107 81.5282 42.648C81.5282 42.2853 81.4035 42.0133 81.1542 41.832C80.9105 41.645 80.5592 41.5515 80.1002 41.5515H78.2812V43.7445ZM86.6369 47.051C86.1892 47.051 85.7727 46.9773 85.3874 46.83C85.0077 46.677 84.6762 46.4645 84.3929 46.1925C84.1152 45.9148 83.8971 45.5947 83.7384 45.232C83.5854 44.8637 83.5089 44.4613 83.5089 44.025C83.5089 43.5887 83.5854 43.1892 83.7384 42.8265C83.8971 42.4582 84.1152 42.138 84.3929 41.866C84.6762 41.5883 85.0077 41.3758 85.3874 41.2285C85.7671 41.0755 86.1836 40.999 86.6369 40.999C87.0846 40.999 87.4982 41.0755 87.8779 41.2285C88.2576 41.3758 88.5862 41.5855 88.8639 41.8575C89.1472 42.1295 89.3654 42.4497 89.5184 42.818C89.6771 43.1863 89.7564 43.5887 89.7564 44.025C89.7564 44.4613 89.6771 44.8637 89.5184 45.232C89.3654 45.6003 89.1472 45.9205 88.8639 46.1925C88.5862 46.4645 88.2576 46.677 87.8779 46.83C87.4982 46.9773 87.0846 47.051 86.6369 47.051ZM86.6369 46.49C86.9939 46.49 87.3226 46.4305 87.6229 46.3115C87.9289 46.1868 88.1924 46.014 88.4134 45.793C88.6401 45.5663 88.8157 45.3057 88.9404 45.011C89.0651 44.7107 89.1274 44.382 89.1274 44.025C89.1274 43.668 89.0651 43.3422 88.9404 43.0475C88.8157 42.7472 88.6401 42.4865 88.4134 42.2655C88.1924 42.0388 87.9289 41.866 87.6229 41.747C87.3226 41.6223 86.9939 41.56 86.6369 41.56C86.2799 41.56 85.9484 41.6223 85.6424 41.747C85.3364 41.866 85.0701 42.0388 84.8434 42.2655C84.6224 42.4865 84.4467 42.7472 84.3164 43.0475C84.1917 43.3422 84.1294 43.668 84.1294 44.025C84.1294 44.3763 84.1917 44.7022 84.3164 45.0025C84.4467 45.3028 84.6224 45.5663 84.8434 45.793C85.0701 46.014 85.3364 46.1868 85.6424 46.3115C85.9484 46.4305 86.2799 46.49 86.6369 46.49ZM92.3559 47V41.424L92.5259 41.594H90.2649V41.05H95.0674V41.594H92.8149L92.9764 41.424V47H92.3559ZM100.523 41.05H101.144V47H100.523V41.05ZM96.8005 47H96.1715V41.05H96.8005V47ZM100.583 44.2545H96.7325V43.702H100.583V44.2545ZM105.643 43.175C106.346 43.175 106.881 43.3337 107.249 43.651C107.623 43.9627 107.81 44.4273 107.81 45.045C107.81 45.6853 107.612 46.1727 107.215 46.507C106.819 46.8357 106.252 47 105.515 47H103.152V41.05H103.773V43.175H105.643ZM105.498 46.4985C106.048 46.4985 106.465 46.3767 106.748 46.133C107.037 45.8893 107.181 45.5323 107.181 45.062C107.181 44.5917 107.04 44.246 106.756 44.025C106.473 43.7983 106.054 43.685 105.498 43.685H103.773V46.4985H105.498ZM108.839 47V41.05H109.459V47H108.839ZM110.798 41.05H111.521L113.212 43.4045L114.895 41.05H115.635L113.603 43.906L115.796 47H115.057L113.212 44.4415L111.368 47H110.645L112.83 43.9315L110.798 41.05Z" fill="white"/>
<path d="M3.48141 73V54.1H17.3054V55.801H5.45241V61.984H11.6354C13.8674 61.984 15.5594 62.443 16.7114 63.361C17.8814 64.261 18.4664 65.593 18.4664 67.357C18.4664 69.175 17.8364 70.57 16.5764 71.542C15.3344 72.514 13.5434 73 11.2034 73H3.48141ZM5.45241 71.407H11.1764C12.9224 71.407 14.2364 71.074 15.1184 70.408C16.0184 69.724 16.4684 68.734 16.4684 67.438C16.4684 64.864 14.7044 63.577 11.1764 63.577H5.45241V71.407ZM20.2912 73L28.9312 54.1H30.9022L39.5422 73H37.4362L29.4982 55.261H30.3082L22.3702 73H20.2912ZM23.6932 67.951L24.2872 66.331H35.2762L35.8702 67.951H23.6932ZM43.164 73V54.1H55.179V55.828H44.595L45.108 55.315L45.135 73H43.164ZM58.6152 73V54.1H60.5862V69.76L72.6822 54.1H74.4912V73H72.5202V57.367L60.4242 73H58.6152ZM80.8691 73V54.1H87.9431C89.5451 54.1 90.9221 54.361 92.0741 54.883C93.2261 55.387 94.1081 56.125 94.7201 57.097C95.3501 58.051 95.6651 59.212 95.6651 60.58C95.6651 61.912 95.3501 63.064 94.7201 64.036C94.1081 64.99 93.2261 65.728 92.0741 66.25C90.9221 66.772 89.5451 67.033 87.9431 67.033H81.9761L82.8671 66.088V73H80.8691ZM82.8671 66.25L81.9761 65.278H87.8891C89.7791 65.278 91.2101 64.873 92.1821 64.063C93.1721 63.235 93.6671 62.074 93.6671 60.58C93.6671 59.068 93.1721 57.898 92.1821 57.07C91.2101 56.242 89.7791 55.828 87.8891 55.828H81.9761L82.8671 54.883V66.25ZM96.0178 73L104.658 54.1H106.629L115.269 73H113.163L105.225 55.261H106.035L98.0968 73H96.0178ZM99.4198 67.951L100.014 66.331H111.003L111.597 67.951H99.4198Z" fill="white"/>
<path d="M19.6934 0.444904C19.7781 1.19969 19.9244 1.68491 20.271 2.43198C20.5868 3.13285 20.995 3.62577 21.3262 3.7336C21.434 3.7644 21.4648 3.83372 21.4417 4.00316C21.4032 4.24192 21.511 4.29583 21.6804 4.12639C21.8345 3.98006 21.6342 4.35745 21.3801 4.68863C21.0797 5.07372 20.6946 6.09807 20.6176 6.72962C20.5021 7.58453 20.556 8.90924 20.71 9.27123C21.0258 9.9798 21.0335 11.5972 20.7254 11.8205C20.6638 11.8668 20.6099 11.9669 20.6099 12.0362C20.6099 12.1132 20.5637 12.1594 20.5175 12.1363C20.4636 12.1209 20.425 12.0439 20.4405 11.9669C20.4713 11.8051 20.3326 11.8745 20.2248 12.0824C20.1632 12.2056 20.1632 12.221 20.2633 12.1902C20.3326 12.1594 20.3788 12.1902 20.3788 12.2596C20.3788 12.4136 20.2479 12.4983 20.1786 12.3828C20.0862 12.2287 19.4546 13.0605 19.4546 13.3455C19.4546 13.6998 20.3249 14.624 21.3416 15.348C21.9654 15.8024 23.2362 16.4725 23.4519 16.4725C23.5366 16.4725 23.7754 16.5264 23.9756 16.5957C24.3222 16.7112 24.3992 16.7112 25.0385 16.5957C25.4236 16.5264 25.9088 16.4186 26.1167 16.3569C27.9113 15.8332 28.1346 15.7793 28.5967 15.7793C29.1513 15.7793 29.5286 15.9333 29.8829 16.3107L30.1063 16.5418L29.9831 16.9885C29.9137 17.235 29.8444 17.6046 29.8213 17.8203C29.7828 18.1823 29.7905 18.1746 29.8983 17.7048C30.3296 15.8178 30.8996 14.3468 31.4079 13.7768C31.7853 13.3532 31.7776 13.3994 31.146 14.9321C30.4683 16.5495 30.268 17.1656 30.0832 18.1438C29.9908 18.5982 29.8521 19.2374 29.7751 19.5532C29.6365 20.1231 29.6288 20.1231 29.6211 19.7843L29.6057 19.4377L29.5055 19.8998C29.4516 20.154 29.39 20.5313 29.3669 20.747L29.3284 21.1321L29.4362 20.7932C29.5672 20.3696 29.7212 20.1848 29.6596 20.5159C29.6365 20.6469 29.5672 21.1629 29.5055 21.6712C29.4439 22.1795 29.3361 22.9728 29.2745 23.4426C29.2052 23.9048 29.1358 24.4824 29.105 24.7135C29.0819 24.9445 29.0126 25.2141 28.9587 25.3065C28.8971 25.3989 28.8509 25.5376 28.8509 25.6146C28.8432 25.9535 27.9267 26.6466 27.9267 26.3154C27.9267 26.2692 28.0884 26.0844 28.2809 25.9072C28.5736 25.6377 28.6275 25.5453 28.6044 25.3604L28.5736 25.1371L28.4504 25.4066C28.304 25.7301 27.5647 26.4387 27.2104 26.6004C26.9639 26.7082 26.8561 26.7776 26.4402 27.0548C26.3247 27.1318 25.9935 27.309 25.7085 27.4476C25.4236 27.5862 24.8998 27.8943 24.5378 28.1331C24.1836 28.3718 23.8678 28.5644 23.837 28.5644C23.8062 28.5644 23.4442 28.7569 23.0283 28.9957C22.6047 29.2344 21.4032 29.8583 20.3403 30.382C19.2852 30.9057 18.1068 31.5065 17.7217 31.7221C17.3443 31.9301 16.9438 32.1457 16.836 32.192C16.7282 32.2382 16.5433 32.3537 16.4124 32.4461C16.2891 32.5462 16.1351 32.6387 16.0889 32.6541C15.8347 32.7311 14.9567 33.7169 14.7719 34.1097C14.6641 34.3408 14.5562 34.5487 14.5254 34.5718C14.4099 34.6489 14.1865 35.1572 14.1326 35.4575C14.1018 35.627 14.0479 35.8657 14.0171 35.989C13.9324 36.3279 14.1711 36.7052 14.5408 36.8208C14.8566 36.9132 15.3572 36.8131 15.6114 36.5974C15.673 36.5435 15.7654 36.4973 15.8116 36.4973C16.0119 36.4973 16.6819 36.0891 17.1826 35.6655C18.3301 34.7028 19.9398 34.1251 23.7908 33.301C24.4762 33.1547 25.4698 32.9159 26.0012 32.7619C26.5326 32.6156 27.6032 32.3306 28.3888 32.138C32.3321 31.1676 32.8481 31.0059 33.6645 30.4744C34.0034 30.2588 34.6273 29.7274 35.0509 29.3038C35.8134 28.5336 37.631 26.5234 38.0315 25.9997C38.3011 25.6531 38.9942 25.4066 39.6951 25.4066C40.1341 25.4066 40.2804 25.4528 40.9967 25.7994C41.4357 26.0151 41.9132 26.2846 42.0442 26.4079C42.1828 26.5234 42.5679 26.8084 42.9068 27.0394C44.709 28.2486 45.1865 28.7184 47.8899 31.9147C48.1055 32.1689 48.3751 32.5154 48.4829 32.6849C48.5907 32.8543 48.9373 33.3241 49.2608 33.7246C50.4238 35.1957 51.0938 36.3664 51.0399 36.8516C51.0322 36.944 50.7473 37.098 50.3622 37.229C49.8692 37.3907 49.2762 38.0839 49.3301 38.4382C49.3301 38.4767 49.2993 38.4998 49.2608 38.4998C49.1607 38.4998 49.1607 38.7848 49.2608 38.8464C49.307 38.8695 49.3378 38.9465 49.3378 39.0081C49.3378 39.2161 49.6536 39.8168 49.7845 39.863C49.8538 39.8861 49.9694 39.9554 50.031 40.0093C50.2004 40.1557 51.6022 40.302 51.7947 40.2019C51.8794 40.1557 52.2183 40.1172 52.5495 40.1172C52.9269 40.1095 53.2196 40.071 53.3428 40.0016C53.4506 39.94 53.5969 39.8938 53.6663 39.8861C53.8434 39.8861 54.6521 39.3316 54.6521 39.2161C54.6521 39.1698 54.6213 39.1005 54.5751 39.0774C54.5366 39.0543 54.4981 38.9773 54.4981 38.908C54.4981 38.8079 54.5212 38.8079 54.6136 38.8849C54.7984 39.0389 54.9371 38.8695 54.8215 38.6384C54.7753 38.5383 54.7214 38.3072 54.706 38.1147C54.6829 37.8297 54.6752 37.8528 54.6675 38.2456C54.6521 38.831 54.4981 38.9003 54.4981 38.3226C54.4981 37.591 53.9897 36.3895 52.2568 33.0315C51.4712 31.5065 50.8628 30.2049 50.547 29.3654C50.4007 28.9803 50.2081 28.5259 50.1157 28.3487C50.031 28.1793 49.7691 27.5785 49.5381 27.0086C49.307 26.4464 49.0066 25.7301 48.8757 25.4143C48.637 24.8367 48.5753 24.4054 48.7371 24.4054C48.7833 24.4054 48.7987 24.3823 48.7756 24.3592C48.7448 24.3284 48.6678 24.3515 48.5907 24.4131C48.4752 24.5055 48.4675 24.5055 48.5137 24.3823C48.5599 24.259 48.4367 24.2513 46.6961 24.2436C45.6717 24.2436 44.6782 24.2128 44.4857 24.182C44.1391 24.1281 44.1468 24.1281 44.7552 24.0588C45.5408 23.9664 49.3455 23.9587 50.4392 24.0434C51.2325 24.1127 51.5714 24.2436 50.9783 24.259L50.6856 24.2667L51.0322 24.3438C51.4943 24.4362 53.2119 24.3746 53.2504 24.259C53.2658 24.2128 53.312 24.1897 53.3505 24.2205C53.389 24.2436 53.4198 24.2282 53.4198 24.1897C53.4198 24.1435 53.7587 24.0896 54.1746 24.0588C54.5828 24.028 55.1296 23.9587 55.3838 23.9048C55.6379 23.8508 56.0384 23.7815 56.2695 23.7507C56.824 23.6891 57.4325 23.5428 58.8881 23.1192C61.5992 22.3413 62.4233 22.1564 63.3167 22.1256L64.1639 22.0948L63.5477 22.2027C63.2089 22.2643 62.7622 22.3798 62.5619 22.4722C62.0305 22.7033 60.182 23.2886 59.4735 23.4504C59.1423 23.5274 58.9035 23.6044 58.9497 23.6198C58.9882 23.6275 59.2578 23.589 59.5428 23.5197C60.3361 23.3348 60.313 23.3271 60.3361 23.8971C60.3592 24.752 61.2911 26.9701 61.9612 27.7557C62.1152 27.9328 62.4387 28.3256 62.6851 28.6337C62.9316 28.9341 63.6941 29.6966 64.3795 30.3204C66.1048 31.8993 66.4359 32.2459 66.4359 32.4692C66.4359 32.5771 66.4205 32.5848 66.3666 32.5077C66.3281 32.4461 66.2896 32.6002 66.2588 32.9236C66.228 33.2086 66.1741 33.4628 66.1433 33.4859C66.1048 33.509 66.0509 33.6091 66.02 33.6938C65.943 33.948 65.2113 34.6951 64.7723 34.9723C64.0407 35.4421 62.7776 36.0198 62.0459 36.2277C60.9291 36.5358 59.9048 36.7284 59.3733 36.7284C58.9497 36.7284 58.8727 36.7515 58.6956 36.9363C58.3721 37.2906 58.2412 37.6449 58.2412 38.2071C58.2335 38.7077 58.2412 38.7308 58.5338 39.0312C58.7033 39.2007 58.942 39.3624 59.073 39.3932C59.2039 39.4163 59.3579 39.4779 59.4041 39.5164C59.5197 39.6088 60.467 39.7398 61.1987 39.7706C61.6916 39.7937 62.4079 39.6705 62.7005 39.5241C62.7853 39.4779 63.101 39.347 63.3937 39.2315C65.7428 38.2995 65.9276 38.2225 67.1291 37.6141C68.3152 37.021 68.6695 36.8285 68.8466 36.6667C68.9853 36.5435 69.0854 36.4819 69.5783 36.2123C70.6104 35.6424 71.6424 34.6874 71.8503 34.1097C71.989 33.7323 72.0352 32.6464 71.912 32.6464C71.8735 32.6464 71.8195 32.5 71.7887 32.3152C71.7579 32.138 71.6809 31.9378 71.627 31.8762C71.3882 31.6297 70.8183 30.667 70.7259 30.3743C70.672 30.1895 70.6335 29.6118 70.6335 28.911C70.6412 27.7634 70.6797 27.4399 71.188 24.5825C71.3035 23.9202 71.3035 23.8585 71.188 23.7276C71.0417 23.5659 71.0108 23.3271 71.1418 23.3271C71.2727 23.3271 71.5192 23.4735 72.3279 24.0588C73.4215 24.8367 74.546 25.5992 74.9696 25.8456C75.7552 26.2923 75.2392 25.9226 72.0198 23.7276C71.473 23.3579 70.541 22.7803 69.9634 22.4491C69.0392 21.9254 68.7465 21.7097 68.9545 21.7097C69.2086 21.7097 70.3639 22.1949 71.2496 22.6802C73.1212 23.6968 73.899 24.1897 74.9773 25.0446C75.5549 25.5067 76.1865 26.0074 76.3867 26.1614C76.587 26.3154 76.7487 26.4926 76.7564 26.5465C76.7564 26.5927 76.7795 26.6312 76.8181 26.6235C76.8489 26.6081 77.2031 26.7699 77.6036 26.9624C78.5972 27.4553 81.3005 28.5567 82.3403 28.8956C83.9192 29.4116 84.2657 29.4963 84.9974 29.5733C85.3979 29.6195 85.8523 29.6735 85.9987 29.6889C86.145 29.712 86.4608 29.7505 86.6918 29.7813C86.9537 29.8198 87.1077 29.8737 87.1 29.9276C87.0846 29.9815 87.1231 30.0046 87.1771 29.9892C87.3465 29.9276 88.0397 30.0739 88.0166 30.1664C88.0089 30.2203 88.0859 30.2588 88.1937 30.2588C88.3015 30.2588 88.5403 30.3358 88.7174 30.4205C89.3644 30.7517 89.5261 30.9212 89.9343 31.7838C90.4118 32.7927 90.7045 33.3626 90.7738 33.4166C90.82 33.4474 91.2359 34.0635 91.5055 34.4871C91.5517 34.5564 91.7751 34.8337 92.0061 35.111C92.4836 35.6732 93.0074 36.428 93.0074 36.5512C93.0074 36.6513 93.585 37.1905 93.9855 37.4523C94.4245 37.745 95.5105 38.0069 95.8185 37.8913C95.9495 37.8451 96.2421 37.7758 96.4655 37.7296C96.9507 37.6372 97.3204 37.383 97.59 36.9517C97.8518 36.5435 97.8364 36.2585 97.5129 35.7733C97.305 35.4652 97.1356 35.3189 96.7428 35.111C96.4655 34.9646 96.1805 34.7875 96.1112 34.7105C96.0419 34.6334 95.9418 34.5718 95.8879 34.5718C95.7261 34.5718 94.7018 33.5706 94.7018 33.4089C94.7018 33.3318 94.671 33.2471 94.6247 33.224C94.5862 33.2009 94.386 32.8466 94.178 32.4307C93.8007 31.6913 93.2692 30.7132 93.0228 30.3204C92.8379 30.0354 92.3219 29.2576 92.1525 29.0111C92.0677 28.8956 92.0061 28.7877 92.0061 28.7646C92.0061 28.6876 91.5132 27.979 91.259 27.6941C91.1204 27.54 91.0049 27.3629 91.0049 27.309C91.0049 27.101 89.8881 26.0459 89.349 25.7532C89.0563 25.5838 88.6404 25.345 88.4248 25.2141C88.2168 25.0754 87.824 24.8521 87.5544 24.7135C87.1 24.4747 85.7676 23.2501 85.7676 23.073C85.7676 23.0345 85.5982 22.8111 85.3979 22.5723C85.19 22.3336 84.9435 22.0101 84.8434 21.8638C84.5661 21.4556 83.5033 20.154 83.2645 19.9383C83.149 19.8305 82.9333 19.5686 82.7793 19.3607C82.4096 18.86 81.986 18.3979 81.8936 18.3979C81.7626 18.3979 80.3301 17.0039 78.7204 15.3172C78.2583 14.8243 77.7654 14.3391 77.6267 14.2389C77.3418 14.0156 77.3033 13.8538 77.5343 13.8538C77.75 13.8538 77.9425 13.9617 78.4894 14.393C79.1363 14.8936 80.9308 16.0951 81.4931 16.3955C81.7472 16.5341 82.0091 16.6881 82.0707 16.7343C82.1323 16.7882 82.4404 16.9808 82.7562 17.1733C83.9038 17.8665 84.1194 18.0128 84.5507 18.3748C84.7972 18.5828 85.2362 18.9063 85.5366 19.0988C85.8369 19.2836 86.4454 19.6687 86.8767 19.9537C87.7085 20.4928 87.978 20.6392 89.5569 21.394C91.983 22.5492 93.1999 22.9959 94.7018 23.2501C95.2332 23.3425 95.8339 23.4504 96.0419 23.4889C96.8814 23.6352 99.4692 23.5582 99.9005 23.3733C101.133 22.8419 102.019 22.2181 102.304 21.6789C102.473 21.3554 102.396 20.824 102.142 20.5622L101.942 20.3619L100.07 20.3542C98.3602 20.3388 98.0906 20.3157 96.8275 20.1C95.2948 19.8305 94.3013 19.5917 93.3 19.2528C92.6531 19.0295 91.1974 18.4287 91.0434 18.3132C91.0049 18.2824 90.4657 18.0051 89.8496 17.6971C88.3554 16.95 85.6213 15.2479 84.3043 14.2466C84.1964 14.1619 83.7112 13.8384 83.2183 13.5227C82.4481 13.022 81.2851 12.1825 80.3763 11.4817C79.7063 10.9656 79.0516 10.5651 78.3045 10.2109C77.8578 10.0029 77.1338 9.66403 76.6948 9.45608C75.8553 9.05558 74.4536 8.53956 74.2071 8.53956C74.0762 8.53956 73.4831 8.2931 72.2508 7.73086C71.5115 7.39968 70.0173 7.11472 67.9455 6.91447C66.151 6.74503 62.6004 6.96068 59.0037 7.45359C56.8471 7.75397 54.1823 8.14676 54.036 8.19297C53.9743 8.20838 53.312 8.33161 52.5726 8.47024C49.2762 9.05558 49.307 9.04788 49.3763 9.1557C49.4996 9.35595 47.6742 9.59471 46.2571 9.5716C45.8566 9.5639 45.4869 9.58701 45.433 9.63322C45.3791 9.67943 45.3252 9.67173 45.2943 9.61782C45.2712 9.57931 45.148 9.5408 45.0325 9.5408C44.555 9.5408 42.8683 8.99397 42.8683 8.83993C42.8683 8.80142 42.9453 8.77061 43.0454 8.76291C43.754 8.74751 41.1507 8.3085 40.3112 8.3085C39.8722 8.3085 39.5796 8.25459 39.0866 8.08515C38.7324 7.96192 37.9545 7.75397 37.3614 7.61533C34.5965 6.99149 33.911 6.76043 32.1319 5.85161C31.3694 5.46651 30.6993 5.15074 30.6377 5.15074C30.5068 5.15074 29.7135 4.62701 29.313 4.28043C29.1667 4.1495 28.6275 3.84912 28.1192 3.60266C27.3336 3.23298 27.118 3.08664 26.6944 2.65534C26.0243 1.96987 25.231 1.50776 24.2837 1.2613C23.8678 1.15348 23.4288 1.06876 23.3055 1.06876C22.674 1.06876 20.6099 0.483414 20.0708 0.152233C19.6626 -0.094223 19.6318 -0.0711174 19.6934 0.444904ZM22.6278 8.50105C22.959 9.58701 23.0129 9.69483 23.2516 9.69483C23.4134 9.69483 24.5841 8.56266 24.507 8.47794C24.4762 8.45484 24.353 8.54726 24.2298 8.67819C23.9448 8.99397 23.7445 8.98627 23.5058 8.67049C23.3363 8.45484 23.1592 7.92341 23.1515 7.63844C23.1438 7.29956 24.7304 8.00043 25.0231 8.47024C25.1463 8.67049 25.0308 8.94005 24.6611 9.32515C24.1527 9.85657 23.5905 10.1569 23.0976 10.1569C22.6509 10.1569 22.5277 10.0414 22.2735 9.40216C22.0424 8.79372 22.0116 7.39968 22.2427 7.4767C22.2889 7.4921 22.4583 7.95422 22.6278 8.50105ZM39.2176 8.37782C39.1945 8.40863 38.9557 8.46254 38.6939 8.49335C37.9006 8.58577 36.3448 8.98626 35.5361 9.30974C34.8275 9.59471 34.2037 9.9567 33.5259 10.4881C32.9098 10.9656 33.1793 10.3957 33.911 9.67943C34.8044 8.80912 36.3448 8.34701 38.4628 8.3162C38.9018 8.3162 39.2407 8.33931 39.2176 8.37782ZM43.6076 24.313C43.5845 24.3438 43.2996 24.39 42.9684 24.3977C42.6372 24.4131 42.2444 24.4362 42.0981 24.4439C41.9517 24.4516 41.6591 24.4747 41.4434 24.4824L41.0583 24.5055L41.4049 24.5594C41.7515 24.6133 41.7515 24.6133 41.2509 24.6364C40.9736 24.6518 40.5808 24.6595 40.3652 24.6595C40.1572 24.6595 40.0263 24.6749 40.0802 24.6904C40.2265 24.7443 40.188 24.8675 40.0186 24.8675C39.8414 24.8675 38.7632 25.2218 38.4474 25.3835C38.3242 25.4451 38.1316 25.6069 38.0238 25.7455C37.916 25.8764 37.4924 26.3308 37.0919 26.7544C36.6837 27.1781 36.183 27.748 35.9751 28.0253C35.5669 28.5567 34.8506 29.3346 34.7582 29.3346C34.6581 29.3346 34.712 29.142 34.866 28.9495C34.9508 28.8417 35.3358 28.2871 35.7209 27.7172C36.391 26.7159 36.9609 25.9766 37.2844 25.6993C37.6079 25.4143 38.5475 24.9522 39.1714 24.7674C39.7259 24.5979 40.5654 24.4208 41.3279 24.3053C41.7053 24.2436 43.6461 24.2513 43.6076 24.313ZM44.27 24.3438C44.2007 24.4131 44.1545 24.4131 44.0852 24.3438C44.0158 24.2745 44.0312 24.2513 44.1776 24.2513C44.3239 24.2513 44.3393 24.2745 44.27 24.3438ZM54.3517 39.3701C54.2208 39.501 54.1669 39.3778 54.2824 39.2007C54.3671 39.062 54.3902 39.0543 54.4056 39.1621C54.421 39.2315 54.3979 39.3239 54.3517 39.3701Z" fill="white"/>
<path d="M19.108 4.57311C18.8154 4.62702 18.2839 4.68093 17.9373 4.68093C17.5831 4.68863 17.2981 4.71944 17.2981 4.75025C17.2981 4.85807 18.1453 6.09037 18.4072 6.36764C18.7306 6.72192 19.5239 7.28416 19.7858 7.34577C19.9937 7.39969 19.9937 7.40739 20.0014 8.03124C20.0091 9.13261 20.1247 9.03248 20.1632 7.8849C20.1863 7.0223 20.2248 6.69882 20.3711 6.26751C20.6484 5.42801 20.6946 5.32789 20.9642 4.88118L21.2183 4.45758L20.4328 4.46528C20.0014 4.46528 19.4084 4.51919 19.108 4.57311Z" fill="white"/>
<path d="M44.0235 8.92466C44.1776 9.02479 44.3547 9.02479 44.2931 8.92466C44.27 8.87845 44.1699 8.84764 44.0774 8.84764C43.9388 8.84764 43.9311 8.86305 44.0235 8.92466Z" fill="white"/>
<path d="M20.1863 9.23267C20.2171 9.37901 20.2941 9.65627 20.3558 9.84882C20.4174 10.0414 20.4713 10.5189 20.479 10.9425C20.4867 11.3584 20.5175 11.6973 20.556 11.6973C20.6792 11.6973 20.6099 10.3802 20.4482 9.79491C20.271 9.13255 20.1093 8.78596 20.1863 9.23267Z" fill="white"/>
<path d="M29.7135 18.4749C29.7135 18.5828 29.7289 18.6213 29.752 18.5674C29.7674 18.5211 29.7674 18.4287 29.752 18.3748C29.7289 18.3286 29.7135 18.3671 29.7135 18.4749Z" fill="white"/>
<path d="M29.6365 18.9756C29.6365 19.0989 29.6519 19.1451 29.675 19.0681C29.6904 18.9987 29.6904 18.8909 29.675 18.837C29.6519 18.7908 29.6365 18.8447 29.6365 18.9756Z" fill="white"/>
<path d="M29.2437 21.3709C29.2437 21.4556 29.2668 21.4787 29.2899 21.4171C29.313 21.3632 29.3053 21.2939 29.2822 21.2708C29.2591 21.24 29.236 21.2862 29.2437 21.3709Z" fill="white"/>
<path d="M29.1743 21.7098C29.1743 21.8176 29.1897 21.8561 29.2128 21.8022C29.2282 21.756 29.2282 21.6636 29.2128 21.6097C29.1897 21.5635 29.1743 21.602 29.1743 21.7098Z" fill="white"/>
<path d="M28.9895 22.6725C28.9587 22.8419 28.9355 23.1192 28.9355 23.2886L28.9432 23.5967L29.0126 23.3425C29.0588 23.1962 29.0819 22.9189 29.0665 22.7264L29.0434 22.3644L28.9895 22.6725Z" fill="white"/>
<path d="M58.6416 23.6892C58.6955 23.7123 58.7649 23.7046 58.788 23.6815C58.8188 23.6584 58.7726 23.6353 58.6878 23.643C58.6031 23.643 58.58 23.6661 58.6416 23.6892Z" fill="white"/>
<path d="M58.1797 23.766C58.2259 23.7814 58.3183 23.7814 58.3723 23.766C58.4185 23.7429 58.38 23.7275 58.2721 23.7275C58.1643 23.7275 58.1258 23.7429 58.1797 23.766Z" fill="white"/>
<path d="M57.7945 23.8432C57.8407 23.8586 57.9331 23.8586 57.987 23.8432C58.0332 23.8201 57.9947 23.8047 57.8869 23.8047C57.7791 23.8047 57.7405 23.8201 57.7945 23.8432Z" fill="white"/>
<path d="M28.7431 24.2128C28.72 24.2821 28.7046 24.4824 28.7046 24.6595C28.72 24.9676 28.72 24.9599 28.7739 24.5594C28.8278 24.105 28.8201 24.0126 28.7431 24.2128Z" fill="white"/>
<path d="M48.9142 24.313C48.8372 24.39 48.8757 24.6826 48.9912 24.8367C49.0528 24.9137 49.1068 25.0292 49.1068 25.0908C49.1068 25.2757 49.6151 26.4926 50.185 27.6787C50.7319 28.8185 51.9564 31.6836 51.9564 31.83C51.9564 31.8685 52.0951 32.1843 52.2568 32.5231C52.6727 33.3857 52.9577 34.0404 52.9577 34.1328C52.9577 34.1713 53.0886 34.4024 53.2504 34.6411C53.4121 34.8799 53.6663 35.2727 53.8126 35.5269C53.9589 35.7733 54.1669 36.1353 54.2824 36.3356C54.3979 36.5281 54.552 36.8747 54.629 37.098C54.6983 37.3137 54.783 37.4985 54.8215 37.4985C54.8986 37.4985 54.9063 37.2367 54.8292 37.1597C54.7984 37.1365 54.7676 37.0595 54.7599 36.9979C54.7368 36.8208 54.4133 36.1815 54.2285 35.9197C54.0822 35.7271 53.9127 35.4267 53.2658 34.2406C53.2196 34.1713 53.1502 34.0481 53.1117 33.9711C53.0655 33.9018 53.0116 33.7862 52.9885 33.7246C52.9654 33.663 52.7266 33.1239 52.4648 32.5308C52.1952 31.9378 51.864 31.1753 51.7331 30.8364C51.2094 29.5579 50.909 28.8725 50.262 27.4861C49.8924 26.7005 49.5304 25.8841 49.4533 25.6762C49.384 25.4605 49.2454 25.1062 49.1607 24.8829C48.9681 24.39 49.0066 24.3438 49.5997 24.3823C49.8307 24.3977 50.1003 24.3746 50.2004 24.3284C50.3314 24.2744 50.1927 24.259 49.669 24.2667C49.2762 24.2667 48.9373 24.2898 48.9142 24.313Z" fill="white"/>
<path d="M75.6012 26.2076C75.6012 26.2307 75.8014 26.354 76.0479 26.4926C76.2867 26.6235 76.8797 26.9624 77.3572 27.232C78.5664 27.9174 80.9463 29.0573 81.9167 29.4193C82.3634 29.581 83.0412 29.7813 83.4186 29.8737C83.8037 29.9584 84.2504 30.0585 84.4198 30.1048C84.7279 30.1818 87.2926 30.2126 87.2156 30.1433C87.1925 30.1202 86.5224 30.0663 85.7214 30.0277C84.7818 29.9815 84.0501 29.9045 83.6496 29.8044C82.1324 29.4347 79.8911 28.4643 77.2186 27.0086C76.9413 26.8623 76.5331 26.6466 76.3098 26.5234C76.0864 26.4079 75.8862 26.2846 75.8631 26.2461C75.8246 26.1768 75.6012 26.146 75.6012 26.2076Z" fill="white"/>
<path d="M87.6623 30.251C87.5236 30.3049 87.5236 30.3126 87.6469 30.3589C87.8702 30.4513 88.0011 30.4205 87.9549 30.2972C87.901 30.1663 87.8779 30.1663 87.6623 30.251Z" fill="white"/>
<path d="M88.1553 30.5669C88.1553 30.6054 88.2092 30.6439 88.2708 30.6439C88.3324 30.6439 88.525 30.7672 88.6944 30.9212C88.8638 31.0752 89.0256 31.1831 89.0487 31.16C89.1103 31.1061 88.7098 30.7441 88.525 30.6825C88.4479 30.6516 88.3863 30.5977 88.3863 30.5592C88.3863 30.5207 88.3324 30.4899 88.2708 30.4899C88.2092 30.4899 88.1553 30.5207 88.1553 30.5669Z" fill="white"/>
<path d="M89.4646 31.568C89.4646 31.6065 89.5031 31.645 89.5416 31.645C89.5878 31.645 89.6186 31.6065 89.6186 31.568C89.6186 31.5218 89.5878 31.491 89.5416 31.491C89.5031 31.491 89.4646 31.5218 89.4646 31.568Z" fill="white"/>
<path d="M89.6956 31.7992C89.6956 31.8377 89.7495 31.8762 89.8188 31.8762C89.8804 31.8762 89.9112 31.8377 89.8881 31.7992C89.865 31.753 89.8111 31.7222 89.7649 31.7222C89.7264 31.7222 89.6956 31.753 89.6956 31.7992Z" fill="white"/>
<path d="M54.9832 38.1531C54.9832 38.3226 54.9986 38.3842 55.014 38.2841C55.0294 38.1916 55.0294 38.053 55.014 37.976C54.9909 37.9067 54.9755 37.9837 54.9832 38.1531Z" fill="white"/>
</svg>
