<svg width="54" height="57" viewBox="0 0 54 57" fill="none" xmlns="http://www.w3.org/2000/svg">
<path d="M6.9262 0.12516C5.85634 0.459503 5.24821 0.994457 4.78648 1.99749L4.49368 2.63274L4.52746 6.00962L4.56125 9.38649L4.86531 9.95488C5.1919 10.5678 5.77751 11.1362 6.37438 11.426L6.75728 11.6043V13.1534V14.7137L3.75041 18.6813C2.1062 20.8656 0.653448 22.8717 0.52957 23.1503C-0.0109907 24.3428 0.000270942 24.0753 0.000270942 36.3681C0.000270942 49.0397 -0.0335141 48.4045 0.653448 49.7307C1.02508 50.4662 2.26387 51.6699 3.04092 52.0377C4.39232 52.6952 4.15583 52.6841 14.3589 52.6841L23.7061 52.6952L24.089 53.2413C24.5958 53.988 25.9359 55.2251 26.7805 55.7377C29.0892 57.1197 32.0285 57.3872 34.5511 56.4399C35.1817 56.2058 37.9859 54.6678 42.5131 52.0822C46.3533 49.8867 49.7543 47.9252 50.0584 47.7246C51.3873 46.8776 52.4346 45.674 53.1666 44.1583C53.8536 42.754 54 42.0519 54 40.2576C54 38.9314 53.955 38.5747 53.741 37.8615C52.9414 35.3539 51.3197 33.437 49.0449 32.3448C47.5583 31.6315 46.8376 31.4644 45.1033 31.4644C42.8059 31.4532 42.0288 31.7318 38.0084 34.0499L36.0939 35.1533L36.0376 29.8484C35.9813 24.6772 35.9701 24.5211 35.7223 23.819C35.3845 22.8717 35.1367 22.5151 31.9609 18.3358L29.2806 14.7917V13.1757V11.5597L29.5622 11.4483C30.0577 11.2588 30.9361 10.3561 31.2064 9.74313C31.4654 9.17474 31.4767 9.09673 31.4767 5.87588V2.58816L31.1838 1.9752C30.8347 1.23964 30.2604 0.66011 29.5396 0.292332L28.9991 0.0248566L18.1879 0.00256729C9.68531 -0.00857544 7.27531 0.0137138 6.9262 0.12516ZM28.909 2.56587L29.2243 2.86678L29.2581 5.68642C29.2806 8.194 29.2694 8.53949 29.0892 8.88498C28.9766 9.09673 28.7626 9.33077 28.6049 9.40878C28.222 9.59824 7.77083 9.62053 7.39919 9.43107C6.76854 9.10787 6.75728 9.07444 6.75728 5.87588C6.75728 2.69961 6.76854 2.65503 7.37667 2.33183C7.53433 2.24267 10.5862 2.20924 18.0978 2.23153L28.6049 2.25382L28.909 2.56587ZM27.0283 12.8971V14.0116H21.8367C16.4423 14.0116 16.3635 14.0227 15.9693 14.502C15.5639 14.9812 15.7891 15.8059 16.4085 16.118C16.5775 16.2071 18.3118 16.2406 22.1069 16.2406H27.5689L30.3617 19.9295C33.1321 23.5961 33.6727 24.3985 33.6727 24.9001V25.1564H17.9514H2.23008L2.30891 24.7886C2.44405 24.1757 2.80443 23.6518 5.78877 19.7066C7.38793 17.6002 8.76185 15.7167 8.85195 15.505C8.96456 15.2375 9.00961 14.6468 9.00961 13.4543V11.7826H18.0189H27.0283V12.8971ZM33.7853 31.9324V36.4684L30.3843 38.4076C28.5036 39.4775 26.6904 40.5362 26.3526 40.7703C25.5305 41.3052 24.348 42.4977 23.9313 43.1998L23.5935 43.7682H12.9287H2.25261V35.5768V27.3854H18.0189H33.7853V31.9324ZM46.6686 33.8493C48.9773 34.4289 50.7566 36.0449 51.4774 38.2181C51.7026 38.8979 51.7477 39.2546 51.7477 40.3691C51.7364 41.8847 51.5337 42.6426 50.8129 43.8128C50.0584 45.0499 49.3715 45.5848 46.1056 47.446C44.4388 48.3933 43.0311 49.1846 42.9636 49.2069C42.8397 49.2403 36.0827 37.7835 36.1615 37.6943C36.2966 37.5717 42.0401 34.3397 42.4568 34.1614C43.7181 33.6153 45.2835 33.4927 46.6686 33.8493ZM37.5354 44.6152C39.3823 47.7803 40.8576 50.4105 40.8013 50.4551C40.6774 50.5665 34.9903 53.8097 34.3709 54.1217C33.6614 54.4784 32.2875 54.8016 31.4879 54.8016C28.3009 54.7904 25.4854 52.5503 24.8323 49.4855C24.348 47.2454 25.0125 45.061 26.6792 43.4339C27.4337 42.6983 27.9067 42.3863 30.801 40.7368C32.6028 39.7115 34.0894 38.8645 34.1231 38.8645C34.1569 38.8645 35.6885 41.4501 37.5354 44.6152ZM22.5912 46.4095C22.4223 47.4683 22.3885 48.3822 22.5124 49.2292C22.5912 49.7307 22.6813 50.2099 22.7151 50.2991C22.7714 50.4328 21.5326 50.4551 13.7846 50.4328C4.91036 50.3994 4.77522 50.3994 4.26845 50.1653C3.50265 49.8087 2.92831 49.2515 2.56793 48.5048C2.29765 47.9364 2.25261 47.6912 2.25261 46.9111V45.9972H12.4557H22.67L22.5912 46.4095Z" fill="white"/>
<path d="M11.8814 14.1342C10.9805 14.6469 11.1156 15.9508 12.0954 16.196C13.0977 16.4412 13.886 15.1038 13.154 14.3794C12.8387 14.0785 12.208 13.9447 11.8814 14.1342Z" fill="white"/>
<path d="M17.5122 30.5171C16.9379 30.8514 16.8928 30.9963 16.8928 32.9801V34.8524H15.0797C13.2102 34.8524 12.94 34.9082 12.5909 35.3428C12.1854 35.822 12.4107 36.6467 13.0301 36.9588C13.1765 37.0368 13.976 37.0814 15.0797 37.0814H16.8928V38.9649C16.8928 40.7926 16.9041 40.8483 17.1631 41.127C17.6699 41.673 18.4131 41.6396 18.8523 41.0489C19.0663 40.7703 19.0888 40.5586 19.1226 38.9091L19.1564 37.0814H20.8907C21.8479 37.0814 22.7489 37.0368 22.9065 36.9699C23.5935 36.7136 23.7962 35.7217 23.2669 35.1979C22.9741 34.9082 22.9516 34.9082 21.0709 34.8747L19.1677 34.8413L19.1226 32.9578C19.0888 31.1078 19.0888 31.0632 18.796 30.7846C18.4694 30.4614 17.8388 30.3276 17.5122 30.5171Z" fill="white"/>
</svg>
