<svg width="54" height="54" viewBox="0 0 54 54" fill="none" xmlns="http://www.w3.org/2000/svg">
<path d="M44.3117 0.132183C43.8498 0.334778 43.3766 0.908798 43.2978 1.35901C43.264 1.56161 43.2527 11.6013 43.264 23.6783L43.2978 45.6374L43.6245 46.0538C44.3905 47.0668 45.7649 47.0218 46.5535 45.9638C46.7788 45.6599 46.7901 45.5136 46.8239 39.9309L46.8577 34.2133L49.1333 34.1682C51.3527 34.1345 51.4202 34.1232 51.9948 33.8193C52.7383 33.4366 53.3016 32.8851 53.6959 32.131L54.0001 31.5457V23.3856V15.2255L53.617 14.5165C53.1889 13.7286 52.8397 13.3909 51.9835 12.9407C51.4202 12.6481 51.3414 12.6368 49.1333 12.6031L46.8464 12.558V6.99792C46.8464 0.830013 46.8577 0.931309 46.1254 0.368546C45.6298 -0.0028801 44.8299 -0.115433 44.3117 0.132183Z" fill="white"/>
<path d="M37.6425 5.35453L36.0315 5.75972V23.3855V41.0113L37.7551 41.4278C38.6902 41.6642 39.5013 41.8442 39.5576 41.8442C39.6027 41.8442 39.6365 33.5378 39.6365 23.3855C39.6365 5.87227 39.6252 4.92683 39.445 4.93808C39.3323 4.94934 38.5212 5.12943 37.6425 5.35453Z" fill="white"/>
<path d="M25.0248 8.50621L18.0063 10.2733V23.3857V36.4982L25.1374 38.2765C29.0466 39.2557 32.2911 40.0436 32.3474 40.0436C32.3925 40.0436 32.4263 32.5475 32.4263 23.3857C32.4263 7.59452 32.415 6.72787 32.2347 6.73912C32.1221 6.73912 28.8776 7.53825 25.0248 8.50621Z" fill="white"/>
<path d="M1.05192 10.9373C0.590033 11.1399 0.11688 11.7139 0.0380212 12.1641C0.00422458 12.3667 -0.00704097 17.5442 0.00422458 23.6783L0.0380212 34.8323L0.364722 35.2488C0.939265 36.0141 0.736485 35.9916 7.92391 35.9916H14.4016V23.3857V10.7797H7.90137C2.74175 10.791 1.32229 10.8248 1.05192 10.9373ZM10.0531 18.3658C11.067 19.1312 11.0219 20.5043 9.96297 21.2922C9.68133 21.506 9.46729 21.5286 7.43949 21.5623C4.89347 21.6073 4.54424 21.5398 4.04856 20.9433C3.46275 20.2342 3.45148 19.3113 4.00349 18.6472C4.53298 18.0282 4.75829 17.9831 7.31557 18.0169L9.63627 18.0394L10.0531 18.3658ZM10.0531 25.5692C11.067 26.3346 11.0219 27.7077 9.96297 28.4956C9.68133 28.7094 9.46729 28.732 7.43949 28.7657C4.89347 28.8107 4.54424 28.7432 4.04856 28.1467C3.46275 27.4376 3.45148 26.5147 4.00349 25.8506C4.53298 25.2316 4.75829 25.1865 7.31557 25.2203L9.63627 25.2428L10.0531 25.5692Z" fill="white"/>
<path d="M3.6092 46.2113L3.643 52.8407L3.9697 53.2571C4.51044 53.9662 4.69069 54 7.92391 54H10.7966V46.7966V39.5932H7.19165H3.58667L3.6092 46.2113Z" fill="white"/>
<path d="M14.4016 43.1949V46.7966H15.5169C16.9589 46.7966 17.6574 46.6616 18.6375 46.1776C20.0457 45.491 21.206 43.9715 21.4989 42.4183C21.5552 42.0807 21.6116 41.3153 21.6116 40.7075V39.5932H18.0066H14.4016V43.1949Z" fill="white"/>
</svg>
